<?xml version="1.0" encoding="UTF-8" standalone="no"?>
<!DOCTYPE svg PUBLIC "-//W3C//DTD SVG 1.1//EN"
 "http://www.w3.org/Graphics/SVG/1.1/DTD/svg11.dtd">
<!-- Generated by graphviz version 2.43.0 (0)
 -->
<!-- Title: src.puissanceQuatre.puissanceQuatre.pq_verif_colonne Pages: 1 -->
<svg width="581pt" height="60pt"
 viewBox="0.00 0.00 581.00 60.00" xmlns="http://www.w3.org/2000/svg" xmlns:xlink="http://www.w3.org/1999/xlink">
<g id="graph0" class="graph" transform="scale(1 1) rotate(0) translate(4 56)">
<title>src.puissanceQuatre.puissanceQuatre.pq_verif_colonne</title>
<!-- Node1 -->
<g id="Node000001" class="node">
<title>Node1</title>
<g id="a_Node000001"><a xlink:title="Vérifie si on peut poser un jeton dans cette colonne.">
<polygon fill="#999999" stroke="#666666" points="573,-30 406,-30 406,0 573,0 573,-30"/>
<text text-anchor="start" x="414" y="-18" font-family="Helvetica,sans-Serif" font-size="10.00">src.puissanceQuatre.puissance</text>
<text text-anchor="middle" x="489.5" y="-7" font-family="Helvetica,sans-Serif" font-size="10.00">Quatre.pq_verif_colonne</text>
</a>
</g>
</g>
<!-- Node2 -->
<g id="Node000002" class="node">
<title>Node2</title>
<g id="a_Node000002"><a xlink:href="namespacesrc_1_1puissanceQuatre_1_1puissanceQuatre.html#a0d16eac42f24323fdda7fbff6a0cbcf2" target="_top" xlink:title="La méthode qui gère le placement de jetons.">
<polygon fill="white" stroke="#666666" points="370,-52 203,-52 203,-22 370,-22 370,-52"/>
<text text-anchor="start" x="211" y="-40" font-family="Helvetica,sans-Serif" font-size="10.00">src.puissanceQuatre.puissance</text>
<text text-anchor="middle" x="286.5" y="-29" font-family="Helvetica,sans-Serif" font-size="10.00">Quatre.pq_ajout_piece</text>
</a>
</g>
</g>
<!-- Node1&#45;&gt;Node2 -->
<g id="edge1_Node000001_Node000002" class="edge">
<title>Node1&#45;&gt;Node2</title>
<g id="a_edge1_Node000001_Node000002"><a xlink:title=" ">
<path fill="none" stroke="#63b8ff" d="M395.85,-25.14C387.27,-26.08 378.61,-27.03 370.13,-27.96"/>
<polygon fill="#63b8ff" stroke="#63b8ff" points="396.32,-28.61 405.88,-24.04 395.55,-21.65 396.32,-28.61"/>
</a>
</g>
</g>
<!-- Node3 -->
<g id="Node000003" class="node">
<title>Node3</title>
<g id="a_Node000003"><a xlink:href="namespacesrc_1_1puissanceQuatre_1_1puissanceQuatre.html#a8e0776ccc28cc6ea375e5231a9b9387a" target="_top" xlink:title="Méthode implémentant l&#39;algorithme minmax.">
<polygon fill="white" stroke="#666666" points="167,-30 0,-30 0,0 167,0 167,-30"/>
<text text-anchor="start" x="8" y="-18" font-family="Helvetica,sans-Serif" font-size="10.00">src.puissanceQuatre.puissance</text>
<text text-anchor="middle" x="83.5" y="-7" font-family="Helvetica,sans-Serif" font-size="10.00">Quatre.pq_minmax</text>
</a>
</g>
</g>
<!-- Node1&#45;&gt;Node3 -->
<g id="edge4_Node000001_Node000003" class="edge">
<title>Node1&#45;&gt;Node3</title>
<g id="a_edge4_Node000001_Node000003"><a xlink:title=" ">
<path fill="none" stroke="#63b8ff" d="M395.74,-13.28C387.04,-13.17 378.36,-13.07 370,-13 295.78,-12.37 277.22,-12.37 203,-13 191.38,-13.1 179.11,-13.25 167.05,-13.43"/>
<polygon fill="#63b8ff" stroke="#63b8ff" points="395.9,-16.79 405.95,-13.43 396,-9.79 395.9,-16.79"/>
</a>
</g>
</g>
<!-- Node2&#45;&gt;Node3 -->
<g id="edge2_Node000002_Node000003" class="edge">
<title>Node2&#45;&gt;Node3</title>
<g id="a_edge2_Node000002_Node000003"><a xlink:title=" ">
<path fill="none" stroke="#63b8ff" d="M192.85,-26.86C184.27,-25.92 175.61,-24.97 167.13,-24.04"/>
<polygon fill="#63b8ff" stroke="#63b8ff" points="192.55,-30.35 202.88,-27.96 193.32,-23.39 192.55,-30.35"/>
</a>
</g>
</g>
<!-- Node3&#45;&gt;Node3 -->
<g id="edge3_Node000003_Node000003" class="edge">
<title>Node3&#45;&gt;Node3</title>
<g id="a_edge3_Node000003_Node000003"><a xlink:title=" ">
<path fill="none" stroke="#63b8ff" d="M118.86,-40.6C114.03,-44.97 102.24,-48 83.5,-48 51.94,-48 40.1,-39.41 47.99,-30.28"/>
<polygon fill="#63b8ff" stroke="#63b8ff" points="122.36,-40.33 119.01,-30.28 115.36,-40.22 122.36,-40.33"/>
</a>
</g>
</g>
</g>
</svg>
