<?xml version="1.0" encoding="UTF-8" standalone="no"?>
<!DOCTYPE svg PUBLIC "-//W3C//DTD SVG 1.1//EN"
 "http://www.w3.org/Graphics/SVG/1.1/DTD/svg11.dtd">
<!-- Generated by graphviz version 2.43.0 (0)
 -->
<!-- Title: src.controller.ctrl_pageJeu.cpj_use_bonus Pages: 1 -->
<svg width="487pt" height="134pt"
 viewBox="0.00 0.00 487.00 134.00" xmlns="http://www.w3.org/2000/svg" xmlns:xlink="http://www.w3.org/1999/xlink">
<g id="graph0" class="graph" transform="scale(1 1) rotate(0) translate(4 130)">
<title>src.controller.ctrl_pageJeu.cpj_use_bonus</title>
<!-- Node1 -->
<g id="Node000001" class="node">
<title>Node1</title>
<g id="a_Node000001"><a xlink:title="Utilise un bonus puis met à jour la grille de jeu.">
<polygon fill="#999999" stroke="#666666" points="135,-83 0,-83 0,-53 135,-53 135,-83"/>
<text text-anchor="start" x="8" y="-71" font-family="Helvetica,sans-Serif" font-size="10.00">src.controller.ctrl</text>
<text text-anchor="middle" x="67.5" y="-60" font-family="Helvetica,sans-Serif" font-size="10.00">_pageJeu.cpj_use_bonus</text>
</a>
</g>
</g>
<!-- Node2 -->
<g id="Node000002" class="node">
<title>Node2</title>
<g id="a_Node000002"><a xlink:href="namespacesrc_1_1controller_1_1ctrl__pageJeu.html#adfe22b506775bc4282ffe2dd1768427c" target="_top" xlink:title="Fait jouer le bot.">
<polygon fill="white" stroke="#666666" points="304,-83 179,-83 179,-53 304,-53 304,-83"/>
<text text-anchor="start" x="187" y="-71" font-family="Helvetica,sans-Serif" font-size="10.00">src.controller.ctrl</text>
<text text-anchor="middle" x="241.5" y="-60" font-family="Helvetica,sans-Serif" font-size="10.00">_pageJeu.cpj_bot_play</text>
</a>
</g>
</g>
<!-- Node1&#45;&gt;Node2 -->
<g id="edge1_Node000001_Node000002" class="edge">
<title>Node1&#45;&gt;Node2</title>
<g id="a_edge1_Node000001_Node000002"><a xlink:title=" ">
<path fill="none" stroke="#63b8ff" d="M135.49,-68C146.4,-68 157.73,-68 168.74,-68"/>
<polygon fill="#63b8ff" stroke="#63b8ff" points="168.75,-71.5 178.75,-68 168.75,-64.5 168.75,-71.5"/>
</a>
</g>
</g>
<!-- Node3 -->
<g id="Node000003" class="node">
<title>Node3</title>
<g id="a_Node000003"><a xlink:href="namespacesrc_1_1controller_1_1ctrl__pageJeu.html#a6c4585487aedfb2339c206fe793fcd78" target="_top" xlink:title="Affiche le joueur qui doit jouer.">
<polygon fill="white" stroke="#666666" points="477,-126 350,-126 350,-96 477,-96 477,-126"/>
<text text-anchor="start" x="358" y="-114" font-family="Helvetica,sans-Serif" font-size="10.00">src.controller.ctrl</text>
<text text-anchor="middle" x="413.5" y="-103" font-family="Helvetica,sans-Serif" font-size="10.00">_pageJeu.cpj_info_turn</text>
</a>
</g>
</g>
<!-- Node1&#45;&gt;Node3 -->
<g id="edge4_Node000001_Node000003" class="edge">
<title>Node1&#45;&gt;Node3</title>
<g id="a_edge4_Node000001_Node000003"><a xlink:title=" ">
<path fill="none" stroke="#63b8ff" d="M125.93,-83.06C140.55,-86.45 156.28,-89.71 171,-92 227.35,-100.76 291.77,-105.57 339.89,-108.16"/>
<polygon fill="#63b8ff" stroke="#63b8ff" points="339.74,-111.66 349.9,-108.68 340.1,-104.67 339.74,-111.66"/>
</a>
</g>
</g>
<!-- Node5 -->
<g id="Node000005" class="node">
<title>Node5</title>
<g id="a_Node000005"><a xlink:href="namespacesrc_1_1controller_1_1ctrl__pageJeu.html#a3b1f3eaf369683943243d07811fe578f" target="_top" xlink:title="Réinitialise la grille de jeu.">
<polygon fill="white" stroke="#666666" points="312,-35 171,-35 171,-5 312,-5 312,-35"/>
<text text-anchor="start" x="179" y="-23" font-family="Helvetica,sans-Serif" font-size="10.00">src.controller.ctrl</text>
<text text-anchor="middle" x="241.5" y="-12" font-family="Helvetica,sans-Serif" font-size="10.00">_pageJeu.cpj_update_grid</text>
</a>
</g>
</g>
<!-- Node1&#45;&gt;Node5 -->
<g id="edge5_Node000001_Node000005" class="edge">
<title>Node1&#45;&gt;Node5</title>
<g id="a_edge5_Node000001_Node000005"><a xlink:title=" ">
<path fill="none" stroke="#63b8ff" d="M122.45,-52.94C139.74,-48.12 159.05,-42.73 176.96,-37.73"/>
<polygon fill="#63b8ff" stroke="#63b8ff" points="178.05,-41.06 186.74,-35 176.17,-34.32 178.05,-41.06"/>
</a>
</g>
</g>
<!-- Node2&#45;&gt;Node3 -->
<g id="edge2_Node000002_Node000003" class="edge">
<title>Node2&#45;&gt;Node3</title>
<g id="a_edge2_Node000002_Node000003"><a xlink:title=" ">
<path fill="none" stroke="#63b8ff" d="M301.96,-83.04C315.29,-86.41 329.54,-90.02 343.23,-93.48"/>
<polygon fill="#63b8ff" stroke="#63b8ff" points="342.52,-96.91 353.08,-95.97 344.24,-90.12 342.52,-96.91"/>
</a>
</g>
</g>
<!-- Node4 -->
<g id="Node000004" class="node">
<title>Node4</title>
<g id="a_Node000004"><a xlink:href="namespacesrc_1_1controller_1_1ctrl__pageJeu.html#a672fc84221142d0c882ef87bb7ff5764" target="_top" xlink:title="Place un jeton dans la grille de jeu.">
<polygon fill="white" stroke="#666666" points="476,-78 351,-78 351,-48 476,-48 476,-78"/>
<text text-anchor="start" x="359" y="-66" font-family="Helvetica,sans-Serif" font-size="10.00">src.controller.ctrl</text>
<text text-anchor="middle" x="413.5" y="-55" font-family="Helvetica,sans-Serif" font-size="10.00">_pageJeu.cpj_put_coin</text>
</a>
</g>
</g>
<!-- Node2&#45;&gt;Node4 -->
<g id="edge3_Node000002_Node000004" class="edge">
<title>Node2&#45;&gt;Node4</title>
<g id="a_edge3_Node000002_Node000004"><a xlink:title=" ">
<path fill="none" stroke="#63b8ff" d="M304.35,-66.18C316.22,-65.83 328.74,-65.46 340.88,-65.11"/>
<polygon fill="#63b8ff" stroke="#63b8ff" points="341.08,-68.6 350.98,-64.81 340.88,-61.61 341.08,-68.6"/>
</a>
</g>
</g>
<!-- Node5&#45;&gt;Node4 -->
<g id="edge7_Node000005_Node000004" class="edge">
<title>Node5&#45;&gt;Node4</title>
<g id="a_edge7_Node000005_Node000004"><a xlink:title=" ">
<path fill="none" stroke="#63b8ff" d="M301.96,-35.04C315.29,-38.41 329.54,-42.02 343.23,-45.48"/>
<polygon fill="#63b8ff" stroke="#63b8ff" points="342.52,-48.91 353.08,-47.97 344.24,-42.12 342.52,-48.91"/>
</a>
</g>
</g>
<!-- Node6 -->
<g id="Node000006" class="node">
<title>Node6</title>
<g id="a_Node000006"><a xlink:href="namespacesrc_1_1controller_1_1ctrl__pageJeu.html#a78551bcfdafd534d8aa90cea38b57585" target="_top" xlink:title="Dessine la grille de jeu.">
<polygon fill="white" stroke="#666666" points="479,-30 348,-30 348,0 479,0 479,-30"/>
<text text-anchor="start" x="356" y="-18" font-family="Helvetica,sans-Serif" font-size="10.00">src.controller.ctrl</text>
<text text-anchor="middle" x="413.5" y="-7" font-family="Helvetica,sans-Serif" font-size="10.00">_pageJeu.cpj_draw_grid</text>
</a>
</g>
</g>
<!-- Node5&#45;&gt;Node6 -->
<g id="edge6_Node000005_Node000006" class="edge">
<title>Node5&#45;&gt;Node6</title>
<g id="a_edge6_Node000005_Node000006"><a xlink:title=" ">
<path fill="none" stroke="#63b8ff" d="M312.14,-17.95C320.55,-17.7 329.16,-17.45 337.64,-17.2"/>
<polygon fill="#63b8ff" stroke="#63b8ff" points="338,-20.69 347.9,-16.9 337.8,-13.7 338,-20.69"/>
</a>
</g>
</g>
</g>
</svg>
