<?xml version="1.0" encoding="UTF-8" standalone="no"?>
<!DOCTYPE svg PUBLIC "-//W3C//DTD SVG 1.1//EN"
 "http://www.w3.org/Graphics/SVG/1.1/DTD/svg11.dtd">
<!-- Generated by graphviz version 2.43.0 (0)
 -->
<!-- Title: src.puissanceQuatre.gestionPartie.gp_start_game Pages: 1 -->
<!--zoomable 220 -->

<svg id="main" version="1.1" xmlns="http://www.w3.org/2000/svg" xmlns:xlink="http://www.w3.org/1999/xlink" xml:space="preserve" onload="init(evt)">
<style type="text/css"><![CDATA[
.node, .edge {opacity: 0.7;}
.node.selected, .edge.selected {opacity: 1;}
.edge:hover path { stroke: red; }
.edge:hover polygon { stroke: red; fill: red; }
]]></style>

<defs>
  <circle id="rim" cx="0" cy="0" r="7"/>
  <circle id="rim2" cx="0" cy="0" r="3.5"/>
  <g id="zoomPlus">
    <use xlink:href="#rim" fill="#404040"><set attributeName="fill" to="#808080" begin="zoomplus.mouseover" end="zoomplus.mouseout"/></use>
    <path d="M-4,0h8M0,-4v8" fill="none" stroke="white" stroke-width="1.5" pointer-events="none"/>
  </g>
  <g id="zoomMin">
    <use xlink:href="#rim" fill="#404040"><set attributeName="fill" to="#808080" begin="zoomminus.mouseover" end="zoomminus.mouseout"/></use>
    <path d="M-4,0h8" fill="none" stroke="white" stroke-width="1.5" pointer-events="none"/>
  </g>
  <g id="arrowUp" transform="translate(30 24)">
    <use xlink:href="#rim"/>
    <path pointer-events="none" fill="none" stroke="white" stroke-width="1.5" d="M0,-3.0v7 M-2.5,-0.5L0,-3.0L2.5,-0.5"/>
  </g>
  <g id="arrowRight" transform="rotate(90) translate(36 -43)">
    <use xlink:href="#rim"/>
    <path pointer-events="none" fill="none" stroke="white" stroke-width="1.5" d="M0,-3.0v7 M-2.5,-0.5L0,-3.0L2.5,-0.5"/>
  </g>
  <g id="arrowDown" transform="rotate(180) translate(-30 -48)">
    <use xlink:href="#rim"/>
    <path pointer-events="none" fill="none" stroke="white" stroke-width="1.5" d="M0,-3.0v7 M-2.5,-0.5L0,-3.0L2.5,-0.5"/>
  </g>
  <g id="arrowLeft" transform="rotate(270) translate(-36 17)">
    <use xlink:href="#rim"/>
    <path pointer-events="none" fill="none" stroke="white" stroke-width="1.5" d="M0,-3.0v7 M-2.5,-0.5L0,-3.0L2.5,-0.5"/>
  </g>
  <g id="resetDef">
    <use xlink:href="#rim2" fill="#404040"><set attributeName="fill" to="#808080" begin="reset.mouseover" end="reset.mouseout"/></use>
  </g>
</defs>
<script type="application/ecmascript">
var viewWidth = 739;
var viewHeight = 220;
var sectionId = 'dynsection-10';
</script>
<script type="application/ecmascript" xlink:href="svg.min.js"/>
<svg id="graph" class="graph">
<g id="viewport">
<title>src.puissanceQuatre.gestionPartie.gp_start_game</title>
<!-- Node1 -->
<g id="Node000001" class="node">
<title>Node1</title>
<g id="a_Node000001"><a xlink:title="Lance une partie normale en ligne de commande.">
<polygon fill="#999999" stroke="#666666" points="155,-116 0,-116 0,-86 155,-86 155,-116"/>
<text text-anchor="start" x="8" y="-104" font-family="Helvetica,sans-Serif" font-size="10.00">src.puissanceQuatre.gestion</text>
<text text-anchor="middle" x="77.5" y="-93" font-family="Helvetica,sans-Serif" font-size="10.00">Partie.gp_start_game</text>
</a>
</g>
</g>
<!-- Node2 -->
<g id="Node000002" class="node">
<title>Node2</title>
<g id="a_Node000002"><a xlink:href="namespacesrc_1_1puissanceQuatre_1_1gestionPartie.html#a4e8b66a7bf337c6a25bf52f931f98164" target="_top" xlink:title="Gère le déroulement d&#39;une partie de puissance 4.">
<polygon fill="white" stroke="#666666" points="346,-116 191,-116 191,-86 346,-86 346,-116"/>
<text text-anchor="start" x="199" y="-104" font-family="Helvetica,sans-Serif" font-size="10.00">src.puissanceQuatre.gestion</text>
<text text-anchor="middle" x="268.5" y="-93" font-family="Helvetica,sans-Serif" font-size="10.00">Partie.gp_gestion_partie</text>
</a>
</g>
</g>
<!-- Node1&#45;&gt;Node2 -->
<g id="edge1_Node000001_Node000002" class="edge">
<title>Node1&#45;&gt;Node2</title>
<g id="a_edge1_Node000001_Node000002"><a xlink:title=" ">
<path fill="none" stroke="#63b8ff" d="M155.1,-101C163.56,-101 172.22,-101 180.79,-101"/>
<polygon fill="#63b8ff" stroke="#63b8ff" points="180.79,-104.5 190.79,-101 180.79,-97.5 180.79,-104.5"/>
</a>
</g>
</g>
<!-- Node3 -->
<g id="Node000003" class="node">
<title>Node3</title>
<g id="a_Node000003"><a xlink:href="namespacesrc_1_1puissanceQuatre_1_1gestionPartie.html#a7457ad13dd17d42ccf7ab82b8016a2ed" target="_top" xlink:title="Récupère le bonus choisi par le joueur.">
<polygon fill="white" stroke="#666666" points="538.5,-212 383.5,-212 383.5,-182 538.5,-182 538.5,-212"/>
<text text-anchor="start" x="391.5" y="-200" font-family="Helvetica,sans-Serif" font-size="10.00">src.puissanceQuatre.gestion</text>
<text text-anchor="middle" x="461" y="-189" font-family="Helvetica,sans-Serif" font-size="10.00">Partie.gp_choose_bonus</text>
</a>
</g>
</g>
<!-- Node2&#45;&gt;Node3 -->
<g id="edge2_Node000002_Node000003" class="edge">
<title>Node2&#45;&gt;Node3</title>
<g id="a_edge2_Node000002_Node000003"><a xlink:title=" ">
<path fill="none" stroke="#63b8ff" d="M289.28,-116.02C311.03,-131.96 347.49,-157.01 382,-173 386.09,-174.89 390.36,-176.69 394.72,-178.38"/>
<polygon fill="#63b8ff" stroke="#63b8ff" points="393.74,-181.75 404.33,-181.91 396.15,-175.17 393.74,-181.75"/>
</a>
</g>
</g>
<!-- Node4 -->
<g id="Node000004" class="node">
<title>Node4</title>
<g id="a_Node000004"><a xlink:href="namespacesrc_1_1puissanceQuatre_1_1gestionPartie.html#a51002e3fd99cf2917a42b7e471beefd5" target="_top" xlink:title="Méthode permettant de gérer le tour du bot.">
<polygon fill="white" stroke="#666666" points="538.5,-164 383.5,-164 383.5,-134 538.5,-134 538.5,-164"/>
<text text-anchor="start" x="391.5" y="-152" font-family="Helvetica,sans-Serif" font-size="10.00">src.puissanceQuatre.gestion</text>
<text text-anchor="middle" x="461" y="-141" font-family="Helvetica,sans-Serif" font-size="10.00">Partie.gp_handle_bot_turn</text>
</a>
</g>
</g>
<!-- Node2&#45;&gt;Node4 -->
<g id="edge3_Node000002_Node000004" class="edge">
<title>Node2&#45;&gt;Node4</title>
<g id="a_edge3_Node000002_Node000004"><a xlink:title=" ">
<path fill="none" stroke="#63b8ff" d="M329.25,-116.06C348.76,-120.97 370.58,-126.47 390.72,-131.54"/>
<polygon fill="#63b8ff" stroke="#63b8ff" points="389.91,-134.95 400.46,-134 391.62,-128.16 389.91,-134.95"/>
</a>
</g>
</g>
<!-- Node5 -->
<g id="Node000005" class="node">
<title>Node5</title>
<g id="a_Node000005"><a xlink:href="namespacesrc_1_1puissanceQuatre_1_1gestionPartie.html#a87175ad265e007bc6ee697f4d9539254" target="_top" xlink:title="Méthode permettant de gérer le tour du joueur.">
<polygon fill="white" stroke="#666666" points="540,-116 382,-116 382,-86 540,-86 540,-116"/>
<text text-anchor="start" x="390" y="-104" font-family="Helvetica,sans-Serif" font-size="10.00">src.puissanceQuatre.gestion</text>
<text text-anchor="middle" x="461" y="-93" font-family="Helvetica,sans-Serif" font-size="10.00">Partie.gp_handle_player_turn</text>
</a>
</g>
</g>
<!-- Node2&#45;&gt;Node5 -->
<g id="edge4_Node000002_Node000005" class="edge">
<title>Node2&#45;&gt;Node5</title>
<g id="a_edge4_Node000002_Node000005"><a xlink:title=" ">
<path fill="none" stroke="#63b8ff" d="M346.16,-101C354.63,-101 363.31,-101 371.9,-101"/>
<polygon fill="#63b8ff" stroke="#63b8ff" points="371.94,-104.5 381.94,-101 371.94,-97.5 371.94,-104.5"/>
</a>
</g>
</g>
<!-- Node8 -->
<g id="Node000008" class="node">
<title>Node8</title>
<g id="a_Node000008"><a xlink:href="namespacesrc_1_1puissanceQuatre_1_1gestionPartie.html#ae5955463d297453ce99b6188e2962570" target="_top" xlink:title="Affiche les règles du jeu.">
<polygon fill="white" stroke="#666666" points="731,-68 576,-68 576,-38 731,-38 731,-68"/>
<text text-anchor="start" x="584" y="-56" font-family="Helvetica,sans-Serif" font-size="10.00">src.puissanceQuatre.gestion</text>
<text text-anchor="middle" x="653.5" y="-45" font-family="Helvetica,sans-Serif" font-size="10.00">Partie.gp_show_rules</text>
</a>
</g>
</g>
<!-- Node2&#45;&gt;Node8 -->
<g id="edge10_Node000002_Node000008" class="edge">
<title>Node2&#45;&gt;Node8</title>
<g id="a_edge10_Node000002_Node000008"><a xlink:title=" ">
<path fill="none" stroke="#63b8ff" d="M333.21,-86C349.08,-82.65 366.1,-79.39 382,-77 443.1,-67.81 512.53,-61.74 565.75,-58"/>
<polygon fill="#63b8ff" stroke="#63b8ff" points="566.1,-61.49 575.83,-57.31 565.62,-54.5 566.1,-61.49"/>
</a>
</g>
</g>
<!-- Node10 -->
<g id="Node000010" class="node">
<title>Node10</title>
<g id="a_Node000010"><a xlink:href="namespacesrc_1_1puissanceQuatre_1_1gestionPartie.html#abbcab5142d713a4647dac37511e5c9a8" target="_top" xlink:title="Méthode permettant de gérer la victoire d&#39;un joueur.">
<polygon fill="white" stroke="#666666" points="538.5,-30 383.5,-30 383.5,0 538.5,0 538.5,-30"/>
<text text-anchor="start" x="391.5" y="-18" font-family="Helvetica,sans-Serif" font-size="10.00">src.puissanceQuatre.gestion</text>
<text text-anchor="middle" x="461" y="-7" font-family="Helvetica,sans-Serif" font-size="10.00">Partie.gp_handle_victory</text>
</a>
</g>
</g>
<!-- Node2&#45;&gt;Node10 -->
<g id="edge9_Node000002_Node000010" class="edge">
<title>Node2&#45;&gt;Node10</title>
<g id="a_edge9_Node000002_Node000010"><a xlink:title=" ">
<path fill="none" stroke="#63b8ff" d="M297.28,-85.82C319.8,-73.78 352.51,-56.9 382,-44 390.08,-40.47 398.74,-36.97 407.24,-33.69"/>
<polygon fill="#63b8ff" stroke="#63b8ff" points="408.63,-36.91 416.74,-30.09 406.15,-30.36 408.63,-36.91"/>
</a>
</g>
</g>
<!-- Node6 -->
<g id="Node000006" class="node">
<title>Node6</title>
<g id="a_Node000006"><a xlink:href="namespacesrc_1_1puissanceQuatre_1_1gestionPartie.html#a2c9221fc25e78996f3683b31c811f11a" target="_top" xlink:title="Récupère le choix du joueur lors de son tour.">
<polygon fill="white" stroke="#666666" points="731,-212 576,-212 576,-182 731,-182 731,-212"/>
<text text-anchor="start" x="584" y="-200" font-family="Helvetica,sans-Serif" font-size="10.00">src.puissanceQuatre.gestion</text>
<text text-anchor="middle" x="653.5" y="-189" font-family="Helvetica,sans-Serif" font-size="10.00">Partie.gp_get_player_choice</text>
</a>
</g>
</g>
<!-- Node5&#45;&gt;Node6 -->
<g id="edge5_Node000005_Node000006" class="edge">
<title>Node5&#45;&gt;Node6</title>
<g id="a_edge5_Node000005_Node000006"><a xlink:title=" ">
<path fill="none" stroke="#63b8ff" d="M524.19,-116.1C529.76,-118.63 535.13,-121.58 540,-125 561.81,-140.34 554.23,-157.6 576,-173 578.14,-174.51 580.37,-175.93 582.68,-177.26"/>
<polygon fill="#63b8ff" stroke="#63b8ff" points="581.4,-180.54 591.9,-181.98 584.59,-174.31 581.4,-180.54"/>
</a>
</g>
</g>
<!-- Node7 -->
<g id="Node000007" class="node">
<title>Node7</title>
<g id="a_Node000007"><a xlink:href="namespacesrc_1_1puissanceQuatre_1_1gestionPartie.html#ad9924d90e2191d3bd3af6b4c0c8b99be" target="_top" xlink:title="Méthode permettant au joueur d&#39;annuler ou de refaire son dernier coup.">
<polygon fill="white" stroke="#666666" points="731,-164 576,-164 576,-134 731,-134 731,-164"/>
<text text-anchor="start" x="584" y="-152" font-family="Helvetica,sans-Serif" font-size="10.00">src.puissanceQuatre.gestion</text>
<text text-anchor="middle" x="653.5" y="-141" font-family="Helvetica,sans-Serif" font-size="10.00">Partie.gp_handle_undo_redo</text>
</a>
</g>
</g>
<!-- Node5&#45;&gt;Node7 -->
<g id="edge6_Node000005_Node000007" class="edge">
<title>Node5&#45;&gt;Node7</title>
<g id="a_edge6_Node000005_Node000007"><a xlink:title=" ">
<path fill="none" stroke="#63b8ff" d="M521.75,-116.06C541.26,-120.97 563.08,-126.47 583.22,-131.54"/>
<polygon fill="#63b8ff" stroke="#63b8ff" points="582.41,-134.95 592.96,-134 584.12,-128.16 582.41,-134.95"/>
</a>
</g>
</g>
<!-- Node5&#45;&gt;Node8 -->
<g id="edge7_Node000005_Node000008" class="edge">
<title>Node5&#45;&gt;Node8</title>
<g id="a_edge7_Node000005_Node000008"><a xlink:title=" ">
<path fill="none" stroke="#63b8ff" d="M521.75,-85.94C541.26,-81.03 563.08,-75.53 583.22,-70.46"/>
<polygon fill="#63b8ff" stroke="#63b8ff" points="584.12,-73.84 592.96,-68 582.41,-67.05 584.12,-73.84"/>
</a>
</g>
</g>
<!-- Node9 -->
<g id="Node000009" class="node">
<title>Node9</title>
<g id="a_Node000009"><a xlink:href="namespacesrc_1_1puissanceQuatre_1_1gestionPartie.html#a6840a3ba32bb77e469f305f7c620f8e6" target="_top" xlink:title="Méthode permettant au joueur d&#39;utiliser son bonus.">
<polygon fill="white" stroke="#666666" points="731,-116 576,-116 576,-86 731,-86 731,-116"/>
<text text-anchor="start" x="584" y="-104" font-family="Helvetica,sans-Serif" font-size="10.00">src.puissanceQuatre.gestion</text>
<text text-anchor="middle" x="653.5" y="-93" font-family="Helvetica,sans-Serif" font-size="10.00">Partie.gp_use_bonus</text>
</a>
</g>
</g>
<!-- Node5&#45;&gt;Node9 -->
<g id="edge8_Node000005_Node000009" class="edge">
<title>Node5&#45;&gt;Node9</title>
<g id="a_edge8_Node000005_Node000009"><a xlink:title=" ">
<path fill="none" stroke="#63b8ff" d="M540.03,-101C548.53,-101 557.21,-101 565.8,-101"/>
<polygon fill="#63b8ff" stroke="#63b8ff" points="565.82,-104.5 575.82,-101 565.82,-97.5 565.82,-104.5"/>
</a>
</g>
</g>
</g>
</svg>

<g id="navigator" transform="translate(0 0)" fill="#404254">
  <rect fill="#f2f5e9" fill-opacity="0.5" stroke="#606060" stroke-width=".5" x="0" y="0" width="60" height="60"/>
  <use id="zoomplus" xlink:href="#zoomPlus" x="17" y="9" onmousedown="handleZoom(evt,'in')"/>
  <use id="zoomminus" xlink:href="#zoomMin" x="42" y="9" onmousedown="handleZoom(evt,'out')"/>
  <use id="reset" xlink:href="#resetDef" x="30" y="36" onmousedown="handleReset()"/>
   <use id="arrowup" xlink:href="#arrowUp" x="0" y="0" onmousedown="handlePan(0,-1)"/>
  <use id="arrowright" xlink:href="#arrowRight" x="0" y="0" onmousedown="handlePan(1,0)"/>
  <use id="arrowdown" xlink:href="#arrowDown" x="0" y="0" onmousedown="handlePan(0,1)"/>
  <use id="arrowleft" xlink:href="#arrowLeft" x="0" y="0" onmousedown="handlePan(-1,0)"/>
</g>
<svg viewBox="0 0 15 15" width="100%" height="30px" preserveAspectRatio="xMaxYMin meet">
 <g id="arrow_out" transform="scale(0.3 0.3)">
  <a xlink:href="namespacesrc_1_1puissanceQuatre_1_1gestionPartie_aa466c9df31fc3b2b1d95c718feb5a735_cgraph_org.svg" target="_base">
   <rect id="button" ry="5" rx="5" y="6" x="6" height="38" width="38"
        fill="#f2f5e9" fill-opacity="0.5" stroke="#606060" stroke-width="1.0"/>
   <path id="arrow"
     d="M 11.500037,31.436501 C 11.940474,20.09759 22.043105,11.32322 32.158766,21.979434 L 37.068811,17.246167 C 37.068811,17.246167 37.088388,32 37.088388,32 L 22.160133,31.978069 C 22.160133,31.978069 26.997745,27.140456 26.997745,27.140456 C 18.528582,18.264221 13.291696,25.230495 11.500037,31.436501 z"
     style="fill:#404040;"/>
  </a>
 </g>
</svg>

<style type='text/css'>
<![CDATA[
[data-mouse-over-selected='false'] { opacity: 0.7; }
[data-mouse-over-selected='true']  { opacity: 1.0; }
]]>
</style>
<script type="application/ecmascript"><![CDATA[
document.addEventListener('DOMContentLoaded', (event) => {
  highlightEdges();
  highlightAdjacentNodes();
});
]]></script>
</svg>
