<?xml version="1.0" encoding="UTF-8" standalone="no"?>
<!DOCTYPE svg PUBLIC "-//W3C//DTD SVG 1.1//EN"
 "http://www.w3.org/Graphics/SVG/1.1/DTD/svg11.dtd">
<!-- Generated by graphviz version 2.43.0 (0)
 -->
<!-- Title: src.controller.ctrl_pageJeu.cpj_update_grid Pages: 1 -->
<svg width="316pt" height="86pt"
 viewBox="0.00 0.00 316.00 86.00" xmlns="http://www.w3.org/2000/svg" xmlns:xlink="http://www.w3.org/1999/xlink">
<g id="graph0" class="graph" transform="scale(1 1) rotate(0) translate(4 82)">
<title>src.controller.ctrl_pageJeu.cpj_update_grid</title>
<!-- Node1 -->
<g id="Node000001" class="node">
<title>Node1</title>
<g id="a_Node000001"><a xlink:title="Réinitialise la grille de jeu.">
<polygon fill="#999999" stroke="#666666" points="141,-54 0,-54 0,-24 141,-24 141,-54"/>
<text text-anchor="start" x="8" y="-42" font-family="Helvetica,sans-Serif" font-size="10.00">src.controller.ctrl</text>
<text text-anchor="middle" x="70.5" y="-31" font-family="Helvetica,sans-Serif" font-size="10.00">_pageJeu.cpj_update_grid</text>
</a>
</g>
</g>
<!-- Node2 -->
<g id="Node000002" class="node">
<title>Node2</title>
<g id="a_Node000002"><a xlink:href="namespacesrc_1_1controller_1_1ctrl__pageJeu.html#a78551bcfdafd534d8aa90cea38b57585" target="_top" xlink:title="Dessine la grille de jeu.">
<polygon fill="white" stroke="#666666" points="308,-78 177,-78 177,-48 308,-48 308,-78"/>
<text text-anchor="start" x="185" y="-66" font-family="Helvetica,sans-Serif" font-size="10.00">src.controller.ctrl</text>
<text text-anchor="middle" x="242.5" y="-55" font-family="Helvetica,sans-Serif" font-size="10.00">_pageJeu.cpj_draw_grid</text>
</a>
</g>
</g>
<!-- Node1&#45;&gt;Node2 -->
<g id="edge1_Node000001_Node000002" class="edge">
<title>Node1&#45;&gt;Node2</title>
<g id="a_edge1_Node000001_Node000002"><a xlink:title=" ">
<path fill="none" stroke="#63b8ff" d="M141.14,-48.83C149.64,-50.03 158.35,-51.26 166.92,-52.47"/>
<polygon fill="#63b8ff" stroke="#63b8ff" points="166.5,-55.95 176.9,-53.88 167.48,-49.02 166.5,-55.95"/>
</a>
</g>
</g>
<!-- Node3 -->
<g id="Node000003" class="node">
<title>Node3</title>
<g id="a_Node000003"><a xlink:href="namespacesrc_1_1controller_1_1ctrl__pageJeu.html#a672fc84221142d0c882ef87bb7ff5764" target="_top" xlink:title="Place un jeton dans la grille de jeu.">
<polygon fill="white" stroke="#666666" points="305,-30 180,-30 180,0 305,0 305,-30"/>
<text text-anchor="start" x="188" y="-18" font-family="Helvetica,sans-Serif" font-size="10.00">src.controller.ctrl</text>
<text text-anchor="middle" x="242.5" y="-7" font-family="Helvetica,sans-Serif" font-size="10.00">_pageJeu.cpj_put_coin</text>
</a>
</g>
</g>
<!-- Node1&#45;&gt;Node3 -->
<g id="edge2_Node000001_Node000003" class="edge">
<title>Node1&#45;&gt;Node3</title>
<g id="a_edge2_Node000001_Node000003"><a xlink:title=" ">
<path fill="none" stroke="#63b8ff" d="M141.14,-29.17C150.56,-27.84 160.25,-26.47 169.72,-25.13"/>
<polygon fill="#63b8ff" stroke="#63b8ff" points="170.46,-28.56 179.87,-23.7 169.48,-21.63 170.46,-28.56"/>
</a>
</g>
</g>
</g>
</svg>
