<?xml version="1.0" encoding="UTF-8" standalone="no"?>
<!DOCTYPE svg PUBLIC "-//W3C//DTD SVG 1.1//EN"
 "http://www.w3.org/Graphics/SVG/1.1/DTD/svg11.dtd">
<!-- Generated by graphviz version 2.43.0 (0)
 -->
<!-- Title: src.controller.ctrl_pageJeu.cpj_play Pages: 1 -->
<svg width="436pt" height="95pt"
 viewBox="0.00 0.00 436.00 95.00" xmlns="http://www.w3.org/2000/svg" xmlns:xlink="http://www.w3.org/1999/xlink">
<g id="graph0" class="graph" transform="scale(1 1) rotate(0) translate(4 91)">
<title>src.controller.ctrl_pageJeu.cpj_play</title>
<!-- Node1 -->
<g id="Node000001" class="node">
<title>Node1</title>
<g id="a_Node000001"><a xlink:title="Joue un coup dans la grille de jeu.">
<polygon fill="#999999" stroke="#666666" points="104,-54 0,-54 0,-24 104,-24 104,-54"/>
<text text-anchor="start" x="8" y="-42" font-family="Helvetica,sans-Serif" font-size="10.00">src.controller.ctrl</text>
<text text-anchor="middle" x="52" y="-31" font-family="Helvetica,sans-Serif" font-size="10.00">_pageJeu.cpj_play</text>
</a>
</g>
</g>
<!-- Node2 -->
<g id="Node000002" class="node">
<title>Node2</title>
<g id="a_Node000002"><a xlink:href="namespacesrc_1_1controller_1_1ctrl__pageJeu.html#adfe22b506775bc4282ffe2dd1768427c" target="_top" xlink:title="Fait jouer le bot.">
<polygon fill="white" stroke="#666666" points="265,-54 140,-54 140,-24 265,-24 265,-54"/>
<text text-anchor="start" x="148" y="-42" font-family="Helvetica,sans-Serif" font-size="10.00">src.controller.ctrl</text>
<text text-anchor="middle" x="202.5" y="-31" font-family="Helvetica,sans-Serif" font-size="10.00">_pageJeu.cpj_bot_play</text>
</a>
</g>
</g>
<!-- Node1&#45;&gt;Node2 -->
<g id="edge1_Node000001_Node000002" class="edge">
<title>Node1&#45;&gt;Node2</title>
<g id="a_edge1_Node000001_Node000002"><a xlink:title=" ">
<path fill="none" stroke="#63b8ff" d="M104.11,-39C112.37,-39 121.05,-39 129.69,-39"/>
<polygon fill="#63b8ff" stroke="#63b8ff" points="129.79,-42.5 139.79,-39 129.79,-35.5 129.79,-42.5"/>
</a>
</g>
</g>
<!-- Node3 -->
<g id="Node000003" class="node">
<title>Node3</title>
<g id="a_Node000003"><a xlink:href="namespacesrc_1_1controller_1_1ctrl__pageJeu.html#a6c4585487aedfb2339c206fe793fcd78" target="_top" xlink:title="Affiche le joueur qui doit jouer.">
<polygon fill="white" stroke="#666666" points="428,-87 301,-87 301,-57 428,-57 428,-87"/>
<text text-anchor="start" x="309" y="-75" font-family="Helvetica,sans-Serif" font-size="10.00">src.controller.ctrl</text>
<text text-anchor="middle" x="364.5" y="-64" font-family="Helvetica,sans-Serif" font-size="10.00">_pageJeu.cpj_info_turn</text>
</a>
</g>
</g>
<!-- Node1&#45;&gt;Node3 -->
<g id="edge4_Node000001_Node000003" class="edge">
<title>Node1&#45;&gt;Node3</title>
<g id="a_edge4_Node000001_Node000003"><a xlink:title=" ">
<path fill="none" stroke="#63b8ff" d="M99.98,-54.07C112.83,-57.61 126.84,-60.95 140,-63 190.01,-70.8 247.04,-72.99 290.97,-73.26"/>
<polygon fill="#63b8ff" stroke="#63b8ff" points="290.98,-76.76 300.99,-73.29 291,-69.76 290.98,-76.76"/>
</a>
</g>
</g>
<!-- Node4 -->
<g id="Node000004" class="node">
<title>Node4</title>
<g id="a_Node000004"><a xlink:href="namespacesrc_1_1controller_1_1ctrl__pageJeu.html#a672fc84221142d0c882ef87bb7ff5764" target="_top" xlink:title="Place un jeton dans la grille de jeu.">
<polygon fill="white" stroke="#666666" points="427,-30 302,-30 302,0 427,0 427,-30"/>
<text text-anchor="start" x="310" y="-18" font-family="Helvetica,sans-Serif" font-size="10.00">src.controller.ctrl</text>
<text text-anchor="middle" x="364.5" y="-7" font-family="Helvetica,sans-Serif" font-size="10.00">_pageJeu.cpj_put_coin</text>
</a>
</g>
</g>
<!-- Node1&#45;&gt;Node4 -->
<g id="edge5_Node000001_Node000004" class="edge">
<title>Node1&#45;&gt;Node4</title>
<g id="a_edge5_Node000001_Node000004"><a xlink:title=" ">
<path fill="none" stroke="#63b8ff" d="M98.57,-23.95C111.79,-20.26 126.34,-16.85 140,-15 190.3,-8.19 247.55,-8.34 291.52,-10.11"/>
<polygon fill="#63b8ff" stroke="#63b8ff" points="291.39,-13.61 301.54,-10.56 291.7,-6.62 291.39,-13.61"/>
</a>
</g>
</g>
<!-- Node2&#45;&gt;Node3 -->
<g id="edge2_Node000002_Node000003" class="edge">
<title>Node2&#45;&gt;Node3</title>
<g id="a_edge2_Node000002_Node000003"><a xlink:title=" ">
<path fill="none" stroke="#63b8ff" d="M265.36,-51.76C273.7,-53.48 282.32,-55.26 290.83,-57.01"/>
<polygon fill="#63b8ff" stroke="#63b8ff" points="290.25,-60.47 300.75,-59.06 291.66,-53.61 290.25,-60.47"/>
</a>
</g>
</g>
<!-- Node2&#45;&gt;Node4 -->
<g id="edge3_Node000002_Node000004" class="edge">
<title>Node2&#45;&gt;Node4</title>
<g id="a_edge3_Node000002_Node000004"><a xlink:title=" ">
<path fill="none" stroke="#63b8ff" d="M265.36,-29.72C274.05,-28.42 283.04,-27.07 291.89,-25.74"/>
<polygon fill="#63b8ff" stroke="#63b8ff" points="292.43,-29.2 301.8,-24.25 291.4,-22.28 292.43,-29.2"/>
</a>
</g>
</g>
</g>
</svg>
