<?xml version="1.0" encoding="UTF-8" standalone="no"?>
<!DOCTYPE svg PUBLIC "-//W3C//DTD SVG 1.1//EN"
 "http://www.w3.org/Graphics/SVG/1.1/DTD/svg11.dtd">
<!-- Generated by graphviz version 2.43.0 (0)
 -->
<!-- Title: src.puissanceQuatre.gestionPartie.gp_show_rules Pages: 1 -->
<svg width="739pt" height="59pt"
 viewBox="0.00 0.00 739.00 59.00" xmlns="http://www.w3.org/2000/svg" xmlns:xlink="http://www.w3.org/1999/xlink">
<g id="graph0" class="graph" transform="scale(1 1) rotate(0) translate(4 55)">
<title>src.puissanceQuatre.gestionPartie.gp_show_rules</title>
<!-- Node1 -->
<g id="Node000001" class="node">
<title>Node1</title>
<g id="a_Node000001"><a xlink:title="Affiche les règles du jeu.">
<polygon fill="#999999" stroke="#666666" points="731,-51 576,-51 576,-21 731,-21 731,-51"/>
<text text-anchor="start" x="584" y="-39" font-family="Helvetica,sans-Serif" font-size="10.00">src.puissanceQuatre.gestion</text>
<text text-anchor="middle" x="653.5" y="-28" font-family="Helvetica,sans-Serif" font-size="10.00">Partie.gp_show_rules</text>
</a>
</g>
</g>
<!-- Node2 -->
<g id="Node000002" class="node">
<title>Node2</title>
<g id="a_Node000002"><a xlink:href="namespacesrc_1_1puissanceQuatre_1_1gestionPartie.html#a4e8b66a7bf337c6a25bf52f931f98164" target="_top" xlink:title="Gère le déroulement d&#39;une partie de puissance 4.">
<polygon fill="white" stroke="#666666" points="346,-51 191,-51 191,-21 346,-21 346,-51"/>
<text text-anchor="start" x="199" y="-39" font-family="Helvetica,sans-Serif" font-size="10.00">src.puissanceQuatre.gestion</text>
<text text-anchor="middle" x="268.5" y="-28" font-family="Helvetica,sans-Serif" font-size="10.00">Partie.gp_gestion_partie</text>
</a>
</g>
</g>
<!-- Node1&#45;&gt;Node2 -->
<g id="edge1_Node000001_Node000002" class="edge">
<title>Node1&#45;&gt;Node2</title>
<g id="a_edge1_Node000001_Node000002"><a xlink:title=" ">
<path fill="none" stroke="#63b8ff" d="M565.76,-38.54C557.06,-38.73 548.35,-38.89 540,-39 469.78,-39.94 452.22,-39.94 382,-39 370.38,-38.85 358.08,-38.6 346.05,-38.32"/>
<polygon fill="#63b8ff" stroke="#63b8ff" points="566.03,-42.04 575.95,-38.32 565.88,-35.04 566.03,-42.04"/>
</a>
</g>
</g>
<!-- Node4 -->
<g id="Node000004" class="node">
<title>Node4</title>
<g id="a_Node000004"><a xlink:href="namespacesrc_1_1puissanceQuatre_1_1gestionPartie.html#a87175ad265e007bc6ee697f4d9539254" target="_top" xlink:title="Méthode permettant de gérer le tour du joueur.">
<polygon fill="white" stroke="#666666" points="540,-30 382,-30 382,0 540,0 540,-30"/>
<text text-anchor="start" x="390" y="-18" font-family="Helvetica,sans-Serif" font-size="10.00">src.puissanceQuatre.gestion</text>
<text text-anchor="middle" x="461" y="-7" font-family="Helvetica,sans-Serif" font-size="10.00">Partie.gp_handle_player_turn</text>
</a>
</g>
</g>
<!-- Node1&#45;&gt;Node4 -->
<g id="edge3_Node000001_Node000004" class="edge">
<title>Node1&#45;&gt;Node4</title>
<g id="a_edge3_Node000001_Node000004"><a xlink:title=" ">
<path fill="none" stroke="#63b8ff" d="M565.82,-26.44C557.23,-25.5 548.55,-24.54 540.06,-23.6"/>
<polygon fill="#63b8ff" stroke="#63b8ff" points="565.52,-29.93 575.84,-27.55 566.28,-22.97 565.52,-29.93"/>
</a>
</g>
</g>
<!-- Node3 -->
<g id="Node000003" class="node">
<title>Node3</title>
<g id="a_Node000003"><a xlink:href="namespacesrc_1_1puissanceQuatre_1_1gestionPartie.html#aa466c9df31fc3b2b1d95c718feb5a735" target="_top" xlink:title="Lance une partie normale en ligne de commande.">
<polygon fill="white" stroke="#666666" points="155,-51 0,-51 0,-21 155,-21 155,-51"/>
<text text-anchor="start" x="8" y="-39" font-family="Helvetica,sans-Serif" font-size="10.00">src.puissanceQuatre.gestion</text>
<text text-anchor="middle" x="77.5" y="-28" font-family="Helvetica,sans-Serif" font-size="10.00">Partie.gp_start_game</text>
</a>
</g>
</g>
<!-- Node2&#45;&gt;Node3 -->
<g id="edge2_Node000002_Node000003" class="edge">
<title>Node2&#45;&gt;Node3</title>
<g id="a_edge2_Node000002_Node000003"><a xlink:title=" ">
<path fill="none" stroke="#63b8ff" d="M180.9,-36C172.33,-36 163.67,-36 155.21,-36"/>
<polygon fill="#63b8ff" stroke="#63b8ff" points="180.9,-39.5 190.9,-36 180.9,-32.5 180.9,-39.5"/>
</a>
</g>
</g>
<!-- Node4&#45;&gt;Node2 -->
<g id="edge4_Node000004_Node000002" class="edge">
<title>Node4&#45;&gt;Node2</title>
<g id="a_edge4_Node000004_Node000002"><a xlink:title=" ">
<path fill="none" stroke="#63b8ff" d="M371.93,-24.71C363.33,-25.66 354.65,-26.61 346.18,-27.55"/>
<polygon fill="#63b8ff" stroke="#63b8ff" points="372.41,-28.18 381.97,-23.6 371.64,-21.22 372.41,-28.18"/>
</a>
</g>
</g>
</g>
</svg>
