<?xml version="1.0" encoding="UTF-8" standalone="no"?>
<!DOCTYPE svg PUBLIC "-//W3C//DTD SVG 1.1//EN"
 "http://www.w3.org/Graphics/SVG/1.1/DTD/svg11.dtd">
<!-- Generated by graphviz version 2.43.0 (0)
 -->
<!-- Title: src.puissanceQuatre.gestionPartie.gp_get_player_choice Pages: 1 -->
<svg width="739pt" height="38pt"
 viewBox="0.00 0.00 739.00 38.00" xmlns="http://www.w3.org/2000/svg" xmlns:xlink="http://www.w3.org/1999/xlink">
<g id="graph0" class="graph" transform="scale(1 1) rotate(0) translate(4 34)">
<title>src.puissanceQuatre.gestionPartie.gp_get_player_choice</title>
<!-- Node1 -->
<g id="Node000001" class="node">
<title>Node1</title>
<g id="a_Node000001"><a xlink:title="Récupère le choix du joueur lors de son tour.">
<polygon fill="#999999" stroke="#666666" points="731,-30 576,-30 576,0 731,0 731,-30"/>
<text text-anchor="start" x="584" y="-18" font-family="Helvetica,sans-Serif" font-size="10.00">src.puissanceQuatre.gestion</text>
<text text-anchor="middle" x="653.5" y="-7" font-family="Helvetica,sans-Serif" font-size="10.00">Partie.gp_get_player_choice</text>
</a>
</g>
</g>
<!-- Node2 -->
<g id="Node000002" class="node">
<title>Node2</title>
<g id="a_Node000002"><a xlink:href="namespacesrc_1_1puissanceQuatre_1_1gestionPartie.html#a87175ad265e007bc6ee697f4d9539254" target="_top" xlink:title="Méthode permettant de gérer le tour du joueur.">
<polygon fill="white" stroke="#666666" points="540,-30 382,-30 382,0 540,0 540,-30"/>
<text text-anchor="start" x="390" y="-18" font-family="Helvetica,sans-Serif" font-size="10.00">src.puissanceQuatre.gestion</text>
<text text-anchor="middle" x="461" y="-7" font-family="Helvetica,sans-Serif" font-size="10.00">Partie.gp_handle_player_turn</text>
</a>
</g>
</g>
<!-- Node1&#45;&gt;Node2 -->
<g id="edge1_Node000001_Node000002" class="edge">
<title>Node1&#45;&gt;Node2</title>
<g id="a_edge1_Node000001_Node000002"><a xlink:title=" ">
<path fill="none" stroke="#63b8ff" d="M565.82,-15C557.23,-15 548.55,-15 540.06,-15"/>
<polygon fill="#63b8ff" stroke="#63b8ff" points="565.84,-18.5 575.84,-15 565.84,-11.5 565.84,-18.5"/>
</a>
</g>
</g>
<!-- Node3 -->
<g id="Node000003" class="node">
<title>Node3</title>
<g id="a_Node000003"><a xlink:href="namespacesrc_1_1puissanceQuatre_1_1gestionPartie.html#a4e8b66a7bf337c6a25bf52f931f98164" target="_top" xlink:title="Gère le déroulement d&#39;une partie de puissance 4.">
<polygon fill="white" stroke="#666666" points="346,-30 191,-30 191,0 346,0 346,-30"/>
<text text-anchor="start" x="199" y="-18" font-family="Helvetica,sans-Serif" font-size="10.00">src.puissanceQuatre.gestion</text>
<text text-anchor="middle" x="268.5" y="-7" font-family="Helvetica,sans-Serif" font-size="10.00">Partie.gp_gestion_partie</text>
</a>
</g>
</g>
<!-- Node2&#45;&gt;Node3 -->
<g id="edge2_Node000002_Node000003" class="edge">
<title>Node2&#45;&gt;Node3</title>
<g id="a_edge2_Node000002_Node000003"><a xlink:title=" ">
<path fill="none" stroke="#63b8ff" d="M371.93,-15C363.33,-15 354.65,-15 346.18,-15"/>
<polygon fill="#63b8ff" stroke="#63b8ff" points="371.97,-18.5 381.97,-15 371.97,-11.5 371.97,-18.5"/>
</a>
</g>
</g>
<!-- Node4 -->
<g id="Node000004" class="node">
<title>Node4</title>
<g id="a_Node000004"><a xlink:href="namespacesrc_1_1puissanceQuatre_1_1gestionPartie.html#aa466c9df31fc3b2b1d95c718feb5a735" target="_top" xlink:title="Lance une partie normale en ligne de commande.">
<polygon fill="white" stroke="#666666" points="155,-30 0,-30 0,0 155,0 155,-30"/>
<text text-anchor="start" x="8" y="-18" font-family="Helvetica,sans-Serif" font-size="10.00">src.puissanceQuatre.gestion</text>
<text text-anchor="middle" x="77.5" y="-7" font-family="Helvetica,sans-Serif" font-size="10.00">Partie.gp_start_game</text>
</a>
</g>
</g>
<!-- Node3&#45;&gt;Node4 -->
<g id="edge3_Node000003_Node000004" class="edge">
<title>Node3&#45;&gt;Node4</title>
<g id="a_edge3_Node000003_Node000004"><a xlink:title=" ">
<path fill="none" stroke="#63b8ff" d="M180.9,-15C172.33,-15 163.67,-15 155.21,-15"/>
<polygon fill="#63b8ff" stroke="#63b8ff" points="180.9,-18.5 190.9,-15 180.9,-11.5 180.9,-18.5"/>
</a>
</g>
</g>
</g>
</svg>
