<?xml version="1.0" encoding="UTF-8" standalone="no"?>
<!DOCTYPE svg PUBLIC "-//W3C//DTD SVG 1.1//EN"
 "http://www.w3.org/Graphics/SVG/1.1/DTD/svg11.dtd">
<!-- Generated by graphviz version 2.43.0 (0)
 -->
<!-- Title: src.puissanceQuatre.gestionPartie.gp_gestion_partie Pages: 1 -->
<svg width="548pt" height="220pt"
 viewBox="0.00 0.00 548.00 220.00" xmlns="http://www.w3.org/2000/svg" xmlns:xlink="http://www.w3.org/1999/xlink">
<g id="graph0" class="graph" transform="scale(1 1) rotate(0) translate(4 216)">
<title>src.puissanceQuatre.gestionPartie.gp_gestion_partie</title>
<!-- Node1 -->
<g id="Node000001" class="node">
<title>Node1</title>
<g id="a_Node000001"><a xlink:title="Gère le déroulement d&#39;une partie de puissance 4.">
<polygon fill="#999999" stroke="#666666" points="155,-116 0,-116 0,-86 155,-86 155,-116"/>
<text text-anchor="start" x="8" y="-104" font-family="Helvetica,sans-Serif" font-size="10.00">src.puissanceQuatre.gestion</text>
<text text-anchor="middle" x="77.5" y="-93" font-family="Helvetica,sans-Serif" font-size="10.00">Partie.gp_gestion_partie</text>
</a>
</g>
</g>
<!-- Node2 -->
<g id="Node000002" class="node">
<title>Node2</title>
<g id="a_Node000002"><a xlink:href="namespacesrc_1_1puissanceQuatre_1_1gestionPartie.html#a7457ad13dd17d42ccf7ab82b8016a2ed" target="_top" xlink:title="Récupère le bonus choisi par le joueur.">
<polygon fill="white" stroke="#666666" points="347.5,-212 192.5,-212 192.5,-182 347.5,-182 347.5,-212"/>
<text text-anchor="start" x="200.5" y="-200" font-family="Helvetica,sans-Serif" font-size="10.00">src.puissanceQuatre.gestion</text>
<text text-anchor="middle" x="270" y="-189" font-family="Helvetica,sans-Serif" font-size="10.00">Partie.gp_choose_bonus</text>
</a>
</g>
</g>
<!-- Node1&#45;&gt;Node2 -->
<g id="edge1_Node000001_Node000002" class="edge">
<title>Node1&#45;&gt;Node2</title>
<g id="a_edge1_Node000001_Node000002"><a xlink:title=" ">
<path fill="none" stroke="#63b8ff" d="M98.28,-116.02C120.03,-131.96 156.49,-157.01 191,-173 195.09,-174.89 199.36,-176.69 203.72,-178.38"/>
<polygon fill="#63b8ff" stroke="#63b8ff" points="202.74,-181.75 213.33,-181.91 205.15,-175.17 202.74,-181.75"/>
</a>
</g>
</g>
<!-- Node3 -->
<g id="Node000003" class="node">
<title>Node3</title>
<g id="a_Node000003"><a xlink:href="namespacesrc_1_1puissanceQuatre_1_1gestionPartie.html#a51002e3fd99cf2917a42b7e471beefd5" target="_top" xlink:title="Méthode permettant de gérer le tour du bot.">
<polygon fill="white" stroke="#666666" points="347.5,-164 192.5,-164 192.5,-134 347.5,-134 347.5,-164"/>
<text text-anchor="start" x="200.5" y="-152" font-family="Helvetica,sans-Serif" font-size="10.00">src.puissanceQuatre.gestion</text>
<text text-anchor="middle" x="270" y="-141" font-family="Helvetica,sans-Serif" font-size="10.00">Partie.gp_handle_bot_turn</text>
</a>
</g>
</g>
<!-- Node1&#45;&gt;Node3 -->
<g id="edge2_Node000001_Node000003" class="edge">
<title>Node1&#45;&gt;Node3</title>
<g id="a_edge2_Node000001_Node000003"><a xlink:title=" ">
<path fill="none" stroke="#63b8ff" d="M138.25,-116.06C157.76,-120.97 179.58,-126.47 199.72,-131.54"/>
<polygon fill="#63b8ff" stroke="#63b8ff" points="198.91,-134.95 209.46,-134 200.62,-128.16 198.91,-134.95"/>
</a>
</g>
</g>
<!-- Node4 -->
<g id="Node000004" class="node">
<title>Node4</title>
<g id="a_Node000004"><a xlink:href="namespacesrc_1_1puissanceQuatre_1_1gestionPartie.html#a87175ad265e007bc6ee697f4d9539254" target="_top" xlink:title="Méthode permettant de gérer le tour du joueur.">
<polygon fill="white" stroke="#666666" points="349,-116 191,-116 191,-86 349,-86 349,-116"/>
<text text-anchor="start" x="199" y="-104" font-family="Helvetica,sans-Serif" font-size="10.00">src.puissanceQuatre.gestion</text>
<text text-anchor="middle" x="270" y="-93" font-family="Helvetica,sans-Serif" font-size="10.00">Partie.gp_handle_player_turn</text>
</a>
</g>
</g>
<!-- Node1&#45;&gt;Node4 -->
<g id="edge3_Node000001_Node000004" class="edge">
<title>Node1&#45;&gt;Node4</title>
<g id="a_edge3_Node000001_Node000004"><a xlink:title=" ">
<path fill="none" stroke="#63b8ff" d="M155.16,-101C163.63,-101 172.31,-101 180.9,-101"/>
<polygon fill="#63b8ff" stroke="#63b8ff" points="180.94,-104.5 190.94,-101 180.94,-97.5 180.94,-104.5"/>
</a>
</g>
</g>
<!-- Node7 -->
<g id="Node000007" class="node">
<title>Node7</title>
<g id="a_Node000007"><a xlink:href="namespacesrc_1_1puissanceQuatre_1_1gestionPartie.html#ae5955463d297453ce99b6188e2962570" target="_top" xlink:title="Affiche les règles du jeu.">
<polygon fill="white" stroke="#666666" points="540,-68 385,-68 385,-38 540,-38 540,-68"/>
<text text-anchor="start" x="393" y="-56" font-family="Helvetica,sans-Serif" font-size="10.00">src.puissanceQuatre.gestion</text>
<text text-anchor="middle" x="462.5" y="-45" font-family="Helvetica,sans-Serif" font-size="10.00">Partie.gp_show_rules</text>
</a>
</g>
</g>
<!-- Node1&#45;&gt;Node7 -->
<g id="edge9_Node000001_Node000007" class="edge">
<title>Node1&#45;&gt;Node7</title>
<g id="a_edge9_Node000001_Node000007"><a xlink:title=" ">
<path fill="none" stroke="#63b8ff" d="M142.21,-86C158.08,-82.65 175.1,-79.39 191,-77 252.1,-67.81 321.53,-61.74 374.75,-58"/>
<polygon fill="#63b8ff" stroke="#63b8ff" points="375.1,-61.49 384.83,-57.31 374.62,-54.5 375.1,-61.49"/>
</a>
</g>
</g>
<!-- Node9 -->
<g id="Node000009" class="node">
<title>Node9</title>
<g id="a_Node000009"><a xlink:href="namespacesrc_1_1puissanceQuatre_1_1gestionPartie.html#abbcab5142d713a4647dac37511e5c9a8" target="_top" xlink:title="Méthode permettant de gérer la victoire d&#39;un joueur.">
<polygon fill="white" stroke="#666666" points="347.5,-30 192.5,-30 192.5,0 347.5,0 347.5,-30"/>
<text text-anchor="start" x="200.5" y="-18" font-family="Helvetica,sans-Serif" font-size="10.00">src.puissanceQuatre.gestion</text>
<text text-anchor="middle" x="270" y="-7" font-family="Helvetica,sans-Serif" font-size="10.00">Partie.gp_handle_victory</text>
</a>
</g>
</g>
<!-- Node1&#45;&gt;Node9 -->
<g id="edge8_Node000001_Node000009" class="edge">
<title>Node1&#45;&gt;Node9</title>
<g id="a_edge8_Node000001_Node000009"><a xlink:title=" ">
<path fill="none" stroke="#63b8ff" d="M106.28,-85.82C128.8,-73.78 161.51,-56.9 191,-44 199.08,-40.47 207.74,-36.97 216.24,-33.69"/>
<polygon fill="#63b8ff" stroke="#63b8ff" points="217.63,-36.91 225.74,-30.09 215.15,-30.36 217.63,-36.91"/>
</a>
</g>
</g>
<!-- Node5 -->
<g id="Node000005" class="node">
<title>Node5</title>
<g id="a_Node000005"><a xlink:href="namespacesrc_1_1puissanceQuatre_1_1gestionPartie.html#a2c9221fc25e78996f3683b31c811f11a" target="_top" xlink:title="Récupère le choix du joueur lors de son tour.">
<polygon fill="white" stroke="#666666" points="540,-212 385,-212 385,-182 540,-182 540,-212"/>
<text text-anchor="start" x="393" y="-200" font-family="Helvetica,sans-Serif" font-size="10.00">src.puissanceQuatre.gestion</text>
<text text-anchor="middle" x="462.5" y="-189" font-family="Helvetica,sans-Serif" font-size="10.00">Partie.gp_get_player_choice</text>
</a>
</g>
</g>
<!-- Node4&#45;&gt;Node5 -->
<g id="edge4_Node000004_Node000005" class="edge">
<title>Node4&#45;&gt;Node5</title>
<g id="a_edge4_Node000004_Node000005"><a xlink:title=" ">
<path fill="none" stroke="#63b8ff" d="M333.19,-116.1C338.76,-118.63 344.13,-121.58 349,-125 370.81,-140.34 363.23,-157.6 385,-173 387.14,-174.51 389.37,-175.93 391.68,-177.26"/>
<polygon fill="#63b8ff" stroke="#63b8ff" points="390.4,-180.54 400.9,-181.98 393.59,-174.31 390.4,-180.54"/>
</a>
</g>
</g>
<!-- Node6 -->
<g id="Node000006" class="node">
<title>Node6</title>
<g id="a_Node000006"><a xlink:href="namespacesrc_1_1puissanceQuatre_1_1gestionPartie.html#ad9924d90e2191d3bd3af6b4c0c8b99be" target="_top" xlink:title="Méthode permettant au joueur d&#39;annuler ou de refaire son dernier coup.">
<polygon fill="white" stroke="#666666" points="540,-164 385,-164 385,-134 540,-134 540,-164"/>
<text text-anchor="start" x="393" y="-152" font-family="Helvetica,sans-Serif" font-size="10.00">src.puissanceQuatre.gestion</text>
<text text-anchor="middle" x="462.5" y="-141" font-family="Helvetica,sans-Serif" font-size="10.00">Partie.gp_handle_undo_redo</text>
</a>
</g>
</g>
<!-- Node4&#45;&gt;Node6 -->
<g id="edge5_Node000004_Node000006" class="edge">
<title>Node4&#45;&gt;Node6</title>
<g id="a_edge5_Node000004_Node000006"><a xlink:title=" ">
<path fill="none" stroke="#63b8ff" d="M330.75,-116.06C350.26,-120.97 372.08,-126.47 392.22,-131.54"/>
<polygon fill="#63b8ff" stroke="#63b8ff" points="391.41,-134.95 401.96,-134 393.12,-128.16 391.41,-134.95"/>
</a>
</g>
</g>
<!-- Node4&#45;&gt;Node7 -->
<g id="edge6_Node000004_Node000007" class="edge">
<title>Node4&#45;&gt;Node7</title>
<g id="a_edge6_Node000004_Node000007"><a xlink:title=" ">
<path fill="none" stroke="#63b8ff" d="M330.75,-85.94C350.26,-81.03 372.08,-75.53 392.22,-70.46"/>
<polygon fill="#63b8ff" stroke="#63b8ff" points="393.12,-73.84 401.96,-68 391.41,-67.05 393.12,-73.84"/>
</a>
</g>
</g>
<!-- Node8 -->
<g id="Node000008" class="node">
<title>Node8</title>
<g id="a_Node000008"><a xlink:href="namespacesrc_1_1puissanceQuatre_1_1gestionPartie.html#a6840a3ba32bb77e469f305f7c620f8e6" target="_top" xlink:title="Méthode permettant au joueur d&#39;utiliser son bonus.">
<polygon fill="white" stroke="#666666" points="540,-116 385,-116 385,-86 540,-86 540,-116"/>
<text text-anchor="start" x="393" y="-104" font-family="Helvetica,sans-Serif" font-size="10.00">src.puissanceQuatre.gestion</text>
<text text-anchor="middle" x="462.5" y="-93" font-family="Helvetica,sans-Serif" font-size="10.00">Partie.gp_use_bonus</text>
</a>
</g>
</g>
<!-- Node4&#45;&gt;Node8 -->
<g id="edge7_Node000004_Node000008" class="edge">
<title>Node4&#45;&gt;Node8</title>
<g id="a_edge7_Node000004_Node000008"><a xlink:title=" ">
<path fill="none" stroke="#63b8ff" d="M349.03,-101C357.53,-101 366.21,-101 374.8,-101"/>
<polygon fill="#63b8ff" stroke="#63b8ff" points="374.82,-104.5 384.82,-101 374.82,-97.5 374.82,-104.5"/>
</a>
</g>
</g>
</g>
</svg>
