<?xml version="1.0" encoding="UTF-8" standalone="no"?>
<!DOCTYPE svg PUBLIC "-//W3C//DTD SVG 1.1//EN"
 "http://www.w3.org/Graphics/SVG/1.1/DTD/svg11.dtd">
<!-- Generated by graphviz version 2.43.0 (0)
 -->
<!-- Title: src.view.view_pageParametres.vpp_askcolor Pages: 1 -->
<svg width="420pt" height="134pt"
 viewBox="0.00 0.00 420.00 134.00" xmlns="http://www.w3.org/2000/svg" xmlns:xlink="http://www.w3.org/1999/xlink">
<g id="graph0" class="graph" transform="scale(1 1) rotate(0) translate(4 130)">
<title>src.view.view_pageParametres.vpp_askcolor</title>
<!-- Node1 -->
<g id="Node000001" class="node">
<title>Node1</title>
<g id="a_Node000001"><a xlink:title="Ouvre un sélecteur de couleur.">
<polygon fill="#999999" stroke="#666666" points="188,-78 0,-78 0,-48 188,-48 188,-78"/>
<text text-anchor="start" x="8" y="-66" font-family="Helvetica,sans-Serif" font-size="10.00">src.view.view_pageParametres.vpp</text>
<text text-anchor="middle" x="94" y="-55" font-family="Helvetica,sans-Serif" font-size="10.00">_askcolor</text>
</a>
</g>
</g>
<!-- Node2 -->
<g id="Node000002" class="node">
<title>Node2</title>
<g id="a_Node000002"><a xlink:href="namespacesrc_1_1view_1_1view__pageParametres.html#a8038789dcb2ddfabf6e49281a701f71f" target="_top" xlink:title="Mutateur pour la couleur des jetons du bot.">
<polygon fill="white" stroke="#666666" points="412,-126 224,-126 224,-96 412,-96 412,-126"/>
<text text-anchor="start" x="232" y="-114" font-family="Helvetica,sans-Serif" font-size="10.00">src.view.view_pageParametres.vpp</text>
<text text-anchor="middle" x="318" y="-103" font-family="Helvetica,sans-Serif" font-size="10.00">_set_bot_color</text>
</a>
</g>
</g>
<!-- Node1&#45;&gt;Node2 -->
<g id="edge1_Node000001_Node000002" class="edge">
<title>Node1&#45;&gt;Node2</title>
<g id="a_edge1_Node000001_Node000002"><a xlink:title=" ">
<path fill="none" stroke="#63b8ff" d="M164.63,-78.06C187.78,-83.06 213.72,-88.67 237.55,-93.82"/>
<polygon fill="#63b8ff" stroke="#63b8ff" points="237.1,-97.31 247.61,-96 238.58,-90.46 237.1,-97.31"/>
</a>
</g>
</g>
<!-- Node3 -->
<g id="Node000003" class="node">
<title>Node3</title>
<g id="a_Node000003"><a xlink:href="namespacesrc_1_1view_1_1view__pageParametres.html#a8972fc8e3e06339f306fe537790488a4" target="_top" xlink:title="Mutateur pour la couleur de la grille.">
<polygon fill="white" stroke="#666666" points="412,-78 224,-78 224,-48 412,-48 412,-78"/>
<text text-anchor="start" x="232" y="-66" font-family="Helvetica,sans-Serif" font-size="10.00">src.view.view_pageParametres.vpp</text>
<text text-anchor="middle" x="318" y="-55" font-family="Helvetica,sans-Serif" font-size="10.00">_set_grid_color</text>
</a>
</g>
</g>
<!-- Node1&#45;&gt;Node3 -->
<g id="edge2_Node000001_Node000003" class="edge">
<title>Node1&#45;&gt;Node3</title>
<g id="a_edge2_Node000001_Node000003"><a xlink:title=" ">
<path fill="none" stroke="#63b8ff" d="M188.18,-63C196.53,-63 205.02,-63 213.46,-63"/>
<polygon fill="#63b8ff" stroke="#63b8ff" points="213.7,-66.5 223.7,-63 213.7,-59.5 213.7,-66.5"/>
</a>
</g>
</g>
<!-- Node4 -->
<g id="Node000004" class="node">
<title>Node4</title>
<g id="a_Node000004"><a xlink:href="namespacesrc_1_1view_1_1view__pageParametres.html#a66c69aa30d25b9833ec0bda3345075f7" target="_top" xlink:title="Mutateur pour la couleur des jetons du joueur.">
<polygon fill="white" stroke="#666666" points="412,-30 224,-30 224,0 412,0 412,-30"/>
<text text-anchor="start" x="232" y="-18" font-family="Helvetica,sans-Serif" font-size="10.00">src.view.view_pageParametres.vpp</text>
<text text-anchor="middle" x="318" y="-7" font-family="Helvetica,sans-Serif" font-size="10.00">_set_joueur_color</text>
</a>
</g>
</g>
<!-- Node1&#45;&gt;Node4 -->
<g id="edge3_Node000001_Node000004" class="edge">
<title>Node1&#45;&gt;Node4</title>
<g id="a_edge3_Node000001_Node000004"><a xlink:title=" ">
<path fill="none" stroke="#63b8ff" d="M164.63,-47.94C187.78,-42.94 213.72,-37.33 237.55,-32.18"/>
<polygon fill="#63b8ff" stroke="#63b8ff" points="238.58,-35.54 247.61,-30 237.1,-28.69 238.58,-35.54"/>
</a>
</g>
</g>
</g>
</svg>
