<?xml version="1.0" encoding="UTF-8" standalone="no"?>
<!DOCTYPE svg PUBLIC "-//W3C//DTD SVG 1.1//EN"
 "http://www.w3.org/Graphics/SVG/1.1/DTD/svg11.dtd">
<!-- Generated by graphviz version 2.43.0 (0)
 -->
<!-- Title: src.controller.ctrl_pageJeu.cpj_put_coin Pages: 1 -->
<svg width="483pt" height="230pt"
 viewBox="0.00 0.00 483.00 230.00" xmlns="http://www.w3.org/2000/svg" xmlns:xlink="http://www.w3.org/1999/xlink">

<svg id="main" version="1.1" xmlns="http://www.w3.org/2000/svg" xmlns:xlink="http://www.w3.org/1999/xlink" xml:space="preserve" onload="init(evt)">
<style type="text/css"><![CDATA[
.node, .edge {opacity: 0.7;}
.node.selected, .edge.selected {opacity: 1;}
.edge:hover path { stroke: red; }
.edge:hover polygon { stroke: red; fill: red; }
]]></style>
<script type="application/ecmascript" xlink:href="svg.min.js"/>
<svg id="graph" class="graph">
<g id="graph0" class="graph" transform="scale(1 1) rotate(0) translate(4 226)">
<title>src.controller.ctrl_pageJeu.cpj_put_coin</title>
<!-- Node1 -->
<g id="Node000001" class="node">
<title>Node1</title>
<g id="a_Node000001"><a xlink:title="Place un jeton dans la grille de jeu.">
<polygon fill="#999999" stroke="#666666" points="475,-152 350,-152 350,-122 475,-122 475,-152"/>
<text text-anchor="start" x="358" y="-140" font-family="Helvetica,sans-Serif" font-size="10.00">src.controller.ctrl</text>
<text text-anchor="middle" x="412.5" y="-129" font-family="Helvetica,sans-Serif" font-size="10.00">_pageJeu.cpj_put_coin</text>
</a>
</g>
</g>
<!-- Node2 -->
<g id="Node000002" class="node">
<title>Node2</title>
<g id="a_Node000002"><a xlink:href="namespacesrc_1_1controller_1_1ctrl__pageJeu.html#adfe22b506775bc4282ffe2dd1768427c" target="_top" xlink:title="Fait jouer le bot.">
<polygon fill="white" stroke="#666666" points="305,-131 180,-131 180,-101 305,-101 305,-131"/>
<text text-anchor="start" x="188" y="-119" font-family="Helvetica,sans-Serif" font-size="10.00">src.controller.ctrl</text>
<text text-anchor="middle" x="242.5" y="-108" font-family="Helvetica,sans-Serif" font-size="10.00">_pageJeu.cpj_bot_play</text>
</a>
</g>
</g>
<!-- Node1&#45;&gt;Node2 -->
<g id="edge1_Node000001_Node000002" class="edge">
<title>Node1&#45;&gt;Node2</title>
<g id="a_edge1_Node000001_Node000002"><a xlink:title=" ">
<path fill="none" stroke="#63b8ff" d="M339.84,-128.04C328.28,-126.6 316.39,-125.11 305.1,-123.7"/>
<polygon fill="#63b8ff" stroke="#63b8ff" points="339.54,-131.53 349.9,-129.3 340.41,-124.59 339.54,-131.53"/>
</a>
</g>
</g>
<!-- Node3 -->
<g id="Node000003" class="node">
<title>Node3</title>
<g id="a_Node000003"><a xlink:href="namespacesrc_1_1controller_1_1ctrl__pageJeu.html#ab02263adc48ce5d29f5428c28ff81f42" target="_top" xlink:title="Joue un coup dans la grille de jeu.">
<polygon fill="white" stroke="#666666" points="119.5,-174 15.5,-174 15.5,-144 119.5,-144 119.5,-174"/>
<text text-anchor="start" x="23.5" y="-162" font-family="Helvetica,sans-Serif" font-size="10.00">src.controller.ctrl</text>
<text text-anchor="middle" x="67.5" y="-151" font-family="Helvetica,sans-Serif" font-size="10.00">_pageJeu.cpj_play</text>
</a>
</g>
</g>
<!-- Node1&#45;&gt;Node3 -->
<g id="edge4_Node000001_Node000003" class="edge">
<title>Node1&#45;&gt;Node3</title>
<g id="a_edge4_Node000001_Node000003"><a xlink:title=" ">
<path fill="none" stroke="#63b8ff" d="M339.49,-141.62C273.67,-145.84 177.96,-151.98 119.66,-155.72"/>
<polygon fill="#63b8ff" stroke="#63b8ff" points="340.03,-145.09 349.78,-140.96 339.58,-138.11 340.03,-145.09"/>
</a>
</g>
</g>
<!-- Node5 -->
<g id="Node000005" class="node">
<title>Node5</title>
<g id="a_Node000005"><a xlink:href="namespacesrc_1_1controller_1_1ctrl__pageJeu.html#aea57256e0fd3b373ce6008c8be52c9aa" target="_top" xlink:title="Réaffiche les jetons de la grille de jeu.">
<polygon fill="white" stroke="#666666" points="314,-219 171,-219 171,-189 314,-189 314,-219"/>
<text text-anchor="start" x="179" y="-207" font-family="Helvetica,sans-Serif" font-size="10.00">src.controller.ctrl</text>
<text text-anchor="middle" x="242.5" y="-196" font-family="Helvetica,sans-Serif" font-size="10.00">_pageJeu.cpj_update_coin</text>
</a>
</g>
</g>
<!-- Node1&#45;&gt;Node5 -->
<g id="edge5_Node000001_Node000005" class="edge">
<title>Node1&#45;&gt;Node5</title>
<g id="a_edge5_Node000001_Node000005"><a xlink:title=" ">
<path fill="none" stroke="#63b8ff" d="M364.43,-155.77C338.19,-166.24 305.96,-179.09 281.37,-188.9"/>
<polygon fill="#63b8ff" stroke="#63b8ff" points="365.81,-158.99 373.8,-152.04 363.21,-152.49 365.81,-158.99"/>
</a>
</g>
</g>
<!-- Node7 -->
<g id="Node000007" class="node">
<title>Node7</title>
<g id="a_Node000007"><a xlink:href="namespacesrc_1_1controller_1_1ctrl__pageJeu.html#a3b1f3eaf369683943243d07811fe578f" target="_top" xlink:title="Réinitialise la grille de jeu.">
<polygon fill="white" stroke="#666666" points="313,-81 172,-81 172,-51 313,-51 313,-81"/>
<text text-anchor="start" x="180" y="-69" font-family="Helvetica,sans-Serif" font-size="10.00">src.controller.ctrl</text>
<text text-anchor="middle" x="242.5" y="-58" font-family="Helvetica,sans-Serif" font-size="10.00">_pageJeu.cpj_update_grid</text>
</a>
</g>
</g>
<!-- Node1&#45;&gt;Node7 -->
<g id="edge7_Node000001_Node000007" class="edge">
<title>Node1&#45;&gt;Node7</title>
<g id="a_edge7_Node000001_Node000007"><a xlink:title=" ">
<path fill="none" stroke="#63b8ff" d="M371.27,-117.56C353.81,-109.35 333.04,-99.89 314,-92 305.08,-88.3 295.43,-84.57 286.21,-81.13"/>
<polygon fill="#63b8ff" stroke="#63b8ff" points="370.06,-120.86 380.6,-121.98 373.06,-114.54 370.06,-120.86"/>
</a>
</g>
</g>
<!-- Node2&#45;&gt;Node3 -->
<g id="edge2_Node000002_Node000003" class="edge">
<title>Node2&#45;&gt;Node3</title>
<g id="a_edge2_Node000002_Node000003"><a xlink:title=" ">
<path fill="none" stroke="#63b8ff" d="M170.97,-133.53C153.74,-137.81 135.63,-142.32 119.51,-146.32"/>
<polygon fill="#63b8ff" stroke="#63b8ff" points="172.13,-136.85 180.99,-131.04 170.44,-130.05 172.13,-136.85"/>
</a>
</g>
</g>
<!-- Node4 -->
<g id="Node000004" class="node">
<title>Node4</title>
<g id="a_Node000004"><a xlink:href="namespacesrc_1_1controller_1_1ctrl__pageJeu.html#a6522f20b78261f4f0a9a60b7d9598e7b" target="_top" xlink:title="Utilise un bonus puis met à jour la grille de jeu.">
<polygon fill="white" stroke="#666666" points="135,-126 0,-126 0,-96 135,-96 135,-126"/>
<text text-anchor="start" x="8" y="-114" font-family="Helvetica,sans-Serif" font-size="10.00">src.controller.ctrl</text>
<text text-anchor="middle" x="67.5" y="-103" font-family="Helvetica,sans-Serif" font-size="10.00">_pageJeu.cpj_use_bonus</text>
</a>
</g>
</g>
<!-- Node2&#45;&gt;Node4 -->
<g id="edge3_Node000002_Node000004" class="edge">
<title>Node2&#45;&gt;Node4</title>
<g id="a_edge3_Node000002_Node000004"><a xlink:title=" ">
<path fill="none" stroke="#63b8ff" d="M169.23,-113.91C157.89,-113.58 146.21,-113.25 135.01,-112.92"/>
<polygon fill="#63b8ff" stroke="#63b8ff" points="169.43,-117.42 179.53,-114.21 169.64,-110.42 169.43,-117.42"/>
</a>
</g>
</g>
<!-- Node6 -->
<g id="Node000006" class="node">
<title>Node6</title>
<g id="a_Node000006"><a xlink:href="namespacesrc_1_1controller_1_1ctrl__pageJeu.html#ac79da7d63efb417759acbfb173323615" target="_top" xlink:title="Affiche le jeton qui sera posé">
<polygon fill="white" stroke="#666666" points="123,-222 12,-222 12,-192 123,-192 123,-222"/>
<text text-anchor="start" x="20" y="-210" font-family="Helvetica,sans-Serif" font-size="10.00">src.controller.ctrl</text>
<text text-anchor="middle" x="67.5" y="-199" font-family="Helvetica,sans-Serif" font-size="10.00">_pageJeu.cpj_hover</text>
</a>
</g>
</g>
<!-- Node5&#45;&gt;Node6 -->
<g id="edge6_Node000005_Node000006" class="edge">
<title>Node5&#45;&gt;Node6</title>
<g id="a_edge6_Node000005_Node000006"><a xlink:title=" ">
<path fill="none" stroke="#63b8ff" d="M160.52,-205.4C147.84,-205.62 135,-205.85 123.1,-206.05"/>
<polygon fill="#63b8ff" stroke="#63b8ff" points="160.7,-208.9 170.64,-205.23 160.58,-201.9 160.7,-208.9"/>
</a>
</g>
</g>
<!-- Node7&#45;&gt;Node4 -->
<g id="edge10_Node000007_Node000004" class="edge">
<title>Node7&#45;&gt;Node4</title>
<g id="a_edge10_Node000007_Node000004"><a xlink:title=" ">
<path fill="none" stroke="#63b8ff" d="M173.35,-83.73C157.83,-87.76 141.48,-92.02 126.43,-95.93"/>
<polygon fill="#63b8ff" stroke="#63b8ff" points="174.62,-87.01 183.41,-81.11 172.85,-80.24 174.62,-87.01"/>
</a>
</g>
</g>
<!-- Node8 -->
<g id="Node000008" class="node">
<title>Node8</title>
<g id="a_Node000008"><a xlink:href="namespacesrc_1_1controller_1_1ctrl__pageJeu.html#a992aebf5b78270aa5aad2cd0f03e0568" target="_top" xlink:title="Refait le dernier coup.">
<polygon fill="white" stroke="#666666" points="120,-30 15,-30 15,0 120,0 120,-30"/>
<text text-anchor="start" x="23" y="-18" font-family="Helvetica,sans-Serif" font-size="10.00">src.controller.ctrl</text>
<text text-anchor="middle" x="67.5" y="-7" font-family="Helvetica,sans-Serif" font-size="10.00">_pageJeu.cpj_redo</text>
</a>
</g>
</g>
<!-- Node7&#45;&gt;Node8 -->
<g id="edge8_Node000007_Node000008" class="edge">
<title>Node7&#45;&gt;Node8</title>
<g id="a_edge8_Node000007_Node000008"><a xlink:title=" ">
<path fill="none" stroke="#63b8ff" d="M180.86,-48.12C160.79,-42.21 138.67,-35.69 119.4,-30.01"/>
<polygon fill="#63b8ff" stroke="#63b8ff" points="179.95,-51.5 190.53,-50.97 181.93,-44.79 179.95,-51.5"/>
</a>
</g>
</g>
<!-- Node9 -->
<g id="Node000009" class="node">
<title>Node9</title>
<g id="a_Node000009"><a xlink:href="namespacesrc_1_1controller_1_1ctrl__pageJeu.html#a3dd68421fb8d0edc5ec271c9904cb6cc" target="_top" xlink:title="Annule le dernier coup.">
<polygon fill="white" stroke="#666666" points="121,-78 14,-78 14,-48 121,-48 121,-78"/>
<text text-anchor="start" x="22" y="-66" font-family="Helvetica,sans-Serif" font-size="10.00">src.controller.ctrl</text>
<text text-anchor="middle" x="67.5" y="-55" font-family="Helvetica,sans-Serif" font-size="10.00">_pageJeu.cpj_undo</text>
</a>
</g>
</g>
<!-- Node7&#45;&gt;Node9 -->
<g id="edge9_Node000007_Node000009" class="edge">
<title>Node7&#45;&gt;Node9</title>
<g id="a_edge9_Node000007_Node000009"><a xlink:title=" ">
<path fill="none" stroke="#63b8ff" d="M161.26,-64.61C147.61,-64.37 133.76,-64.13 121.06,-63.91"/>
<polygon fill="#63b8ff" stroke="#63b8ff" points="161.57,-68.11 171.63,-64.79 161.7,-61.12 161.57,-68.11"/>
</a>
</g>
</g>
</g>
</svg>
</svg>

<style type='text/css'>
<![CDATA[
[data-mouse-over-selected='false'] { opacity: 0.7; }
[data-mouse-over-selected='true']  { opacity: 1.0; }
]]>
</style>
<script type="application/ecmascript"><![CDATA[
document.addEventListener('DOMContentLoaded', (event) => {
  highlightEdges();
  highlightAdjacentNodes();
});
]]></script>
</svg>
