<?xml version="1.0" encoding="UTF-8" standalone="no"?>
<!DOCTYPE svg PUBLIC "-//W3C//DTD SVG 1.1//EN"
 "http://www.w3.org/Graphics/SVG/1.1/DTD/svg11.dtd">
<!-- Generated by graphviz version 2.43.0 (0)
 -->
<!-- Title: src.controller.ctrl_pageJeu.cpj_draw_grid Pages: 1 -->
<svg width="487pt" height="134pt"
 viewBox="0.00 0.00 487.00 134.00" xmlns="http://www.w3.org/2000/svg" xmlns:xlink="http://www.w3.org/1999/xlink">

<svg id="main" version="1.1" xmlns="http://www.w3.org/2000/svg" xmlns:xlink="http://www.w3.org/1999/xlink" xml:space="preserve" onload="init(evt)">
<style type="text/css"><![CDATA[
.node, .edge {opacity: 0.7;}
.node.selected, .edge.selected {opacity: 1;}
.edge:hover path { stroke: red; }
.edge:hover polygon { stroke: red; fill: red; }
]]></style>
<script type="application/ecmascript" xlink:href="svg.min.js"/>
<svg id="graph" class="graph">
<g id="graph0" class="graph" transform="scale(1 1) rotate(0) translate(4 130)">
<title>src.controller.ctrl_pageJeu.cpj_draw_grid</title>
<!-- Node1 -->
<g id="Node000001" class="node">
<title>Node1</title>
<g id="a_Node000001"><a xlink:title="Dessine la grille de jeu.">
<polygon fill="#999999" stroke="#666666" points="479,-102 348,-102 348,-72 479,-72 479,-102"/>
<text text-anchor="start" x="356" y="-90" font-family="Helvetica,sans-Serif" font-size="10.00">src.controller.ctrl</text>
<text text-anchor="middle" x="413.5" y="-79" font-family="Helvetica,sans-Serif" font-size="10.00">_pageJeu.cpj_draw_grid</text>
</a>
</g>
</g>
<!-- Node2 -->
<g id="Node000002" class="node">
<title>Node2</title>
<g id="a_Node000002"><a xlink:href="namespacesrc_1_1controller_1_1ctrl__pageJeu.html#a540ec039fb625bf8f192a8b731e2c39f" target="_top" xlink:title="Affiche la page de jeu.">
<polygon fill="white" stroke="#666666" points="291,-126 192,-126 192,-96 291,-96 291,-126"/>
<text text-anchor="start" x="200" y="-114" font-family="Helvetica,sans-Serif" font-size="10.00">src.controller.ctrl</text>
<text text-anchor="middle" x="241.5" y="-103" font-family="Helvetica,sans-Serif" font-size="10.00">_pageJeu.cpj_init</text>
</a>
</g>
</g>
<!-- Node1&#45;&gt;Node2 -->
<g id="edge1_Node000001_Node000002" class="edge">
<title>Node1&#45;&gt;Node2</title>
<g id="a_edge1_Node000001_Node000002"><a xlink:title=" ">
<path fill="none" stroke="#63b8ff" d="M337.52,-97.59C321.81,-99.8 305.65,-102.08 291.21,-104.12"/>
<polygon fill="#63b8ff" stroke="#63b8ff" points="338.33,-101.01 347.75,-96.14 337.35,-94.07 338.33,-101.01"/>
</a>
</g>
</g>
<!-- Node3 -->
<g id="Node000003" class="node">
<title>Node3</title>
<g id="a_Node000003"><a xlink:href="namespacesrc_1_1controller_1_1ctrl__pageJeu.html#a3b1f3eaf369683943243d07811fe578f" target="_top" xlink:title="Réinitialise la grille de jeu.">
<polygon fill="white" stroke="#666666" points="312,-78 171,-78 171,-48 312,-48 312,-78"/>
<text text-anchor="start" x="179" y="-66" font-family="Helvetica,sans-Serif" font-size="10.00">src.controller.ctrl</text>
<text text-anchor="middle" x="241.5" y="-55" font-family="Helvetica,sans-Serif" font-size="10.00">_pageJeu.cpj_update_grid</text>
</a>
</g>
</g>
<!-- Node1&#45;&gt;Node3 -->
<g id="edge2_Node000001_Node000003" class="edge">
<title>Node1&#45;&gt;Node3</title>
<g id="a_edge2_Node000001_Node000003"><a xlink:title=" ">
<path fill="none" stroke="#63b8ff" d="M337.82,-76.46C329.3,-75.25 320.63,-74.03 312.17,-72.84"/>
<polygon fill="#63b8ff" stroke="#63b8ff" points="337.35,-79.93 347.75,-77.86 338.33,-72.99 337.35,-79.93"/>
</a>
</g>
</g>
<!-- Node4 -->
<g id="Node000004" class="node">
<title>Node4</title>
<g id="a_Node000004"><a xlink:href="namespacesrc_1_1controller_1_1ctrl__pageJeu.html#a992aebf5b78270aa5aad2cd0f03e0568" target="_top" xlink:title="Refait le dernier coup.">
<polygon fill="white" stroke="#666666" points="120,-126 15,-126 15,-96 120,-96 120,-126"/>
<text text-anchor="start" x="23" y="-114" font-family="Helvetica,sans-Serif" font-size="10.00">src.controller.ctrl</text>
<text text-anchor="middle" x="67.5" y="-103" font-family="Helvetica,sans-Serif" font-size="10.00">_pageJeu.cpj_redo</text>
</a>
</g>
</g>
<!-- Node3&#45;&gt;Node4 -->
<g id="edge3_Node000003_Node000004" class="edge">
<title>Node3&#45;&gt;Node4</title>
<g id="a_edge3_Node000003_Node000004"><a xlink:title=" ">
<path fill="none" stroke="#63b8ff" d="M176.68,-80.81C158.07,-86 137.97,-91.61 120.2,-96.57"/>
<polygon fill="#63b8ff" stroke="#63b8ff" points="177.86,-84.12 186.55,-78.06 175.98,-77.37 177.86,-84.12"/>
</a>
</g>
</g>
<!-- Node5 -->
<g id="Node000005" class="node">
<title>Node5</title>
<g id="a_Node000005"><a xlink:href="namespacesrc_1_1controller_1_1ctrl__pageJeu.html#a3dd68421fb8d0edc5ec271c9904cb6cc" target="_top" xlink:title="Annule le dernier coup.">
<polygon fill="white" stroke="#666666" points="121,-78 14,-78 14,-48 121,-48 121,-78"/>
<text text-anchor="start" x="22" y="-66" font-family="Helvetica,sans-Serif" font-size="10.00">src.controller.ctrl</text>
<text text-anchor="middle" x="67.5" y="-55" font-family="Helvetica,sans-Serif" font-size="10.00">_pageJeu.cpj_undo</text>
</a>
</g>
</g>
<!-- Node3&#45;&gt;Node5 -->
<g id="edge4_Node000003_Node000005" class="edge">
<title>Node3&#45;&gt;Node5</title>
<g id="a_edge4_Node000003_Node000005"><a xlink:title=" ">
<path fill="none" stroke="#63b8ff" d="M160.43,-63C147.13,-63 133.64,-63 121.25,-63"/>
<polygon fill="#63b8ff" stroke="#63b8ff" points="160.54,-66.5 170.54,-63 160.54,-59.5 160.54,-66.5"/>
</a>
</g>
</g>
<!-- Node6 -->
<g id="Node000006" class="node">
<title>Node6</title>
<g id="a_Node000006"><a xlink:href="namespacesrc_1_1controller_1_1ctrl__pageJeu.html#a6522f20b78261f4f0a9a60b7d9598e7b" target="_top" xlink:title="Utilise un bonus puis met à jour la grille de jeu.">
<polygon fill="white" stroke="#666666" points="135,-30 0,-30 0,0 135,0 135,-30"/>
<text text-anchor="start" x="8" y="-18" font-family="Helvetica,sans-Serif" font-size="10.00">src.controller.ctrl</text>
<text text-anchor="middle" x="67.5" y="-7" font-family="Helvetica,sans-Serif" font-size="10.00">_pageJeu.cpj_use_bonus</text>
</a>
</g>
</g>
<!-- Node3&#45;&gt;Node6 -->
<g id="edge5_Node000003_Node000006" class="edge">
<title>Node3&#45;&gt;Node6</title>
<g id="a_edge5_Node000003_Node000006"><a xlink:title=" ">
<path fill="none" stroke="#63b8ff" d="M176.76,-45.21C158.84,-40.21 139.53,-34.82 122.26,-30"/>
<polygon fill="#63b8ff" stroke="#63b8ff" points="175.98,-48.63 186.55,-47.94 177.86,-41.88 175.98,-48.63"/>
</a>
</g>
</g>
</g>
</svg>
</svg>

<style type='text/css'>
<![CDATA[
[data-mouse-over-selected='false'] { opacity: 0.7; }
[data-mouse-over-selected='true']  { opacity: 1.0; }
]]>
</style>
<script type="application/ecmascript"><![CDATA[
document.addEventListener('DOMContentLoaded', (event) => {
  highlightEdges();
  highlightAdjacentNodes();
});
]]></script>
</svg>
