<?xml version="1.0" encoding="UTF-8" standalone="no"?>
<!DOCTYPE svg PUBLIC "-//W3C//DTD SVG 1.1//EN"
 "http://www.w3.org/Graphics/SVG/1.1/DTD/svg11.dtd">
<!-- Generated by graphviz version 2.43.0 (0)
 -->
<!-- Title: src.puissanceQuatre.gestionPartie.gp_handle_player_turn Pages: 1 -->
<svg width="357pt" height="182pt"
 viewBox="0.00 0.00 357.00 182.00" xmlns="http://www.w3.org/2000/svg" xmlns:xlink="http://www.w3.org/1999/xlink">
<g id="graph0" class="graph" transform="scale(1 1) rotate(0) translate(4 178)">
<title>src.puissanceQuatre.gestionPartie.gp_handle_player_turn</title>
<!-- Node1 -->
<g id="Node000001" class="node">
<title>Node1</title>
<g id="a_Node000001"><a xlink:title="Méthode permettant de gérer le tour du joueur.">
<polygon fill="#999999" stroke="#666666" points="158,-102 0,-102 0,-72 158,-72 158,-102"/>
<text text-anchor="start" x="8" y="-90" font-family="Helvetica,sans-Serif" font-size="10.00">src.puissanceQuatre.gestion</text>
<text text-anchor="middle" x="79" y="-79" font-family="Helvetica,sans-Serif" font-size="10.00">Partie.gp_handle_player_turn</text>
</a>
</g>
</g>
<!-- Node2 -->
<g id="Node000002" class="node">
<title>Node2</title>
<g id="a_Node000002"><a xlink:href="namespacesrc_1_1puissanceQuatre_1_1gestionPartie.html#a2c9221fc25e78996f3683b31c811f11a" target="_top" xlink:title="Récupère le choix du joueur lors de son tour.">
<polygon fill="white" stroke="#666666" points="349,-174 194,-174 194,-144 349,-144 349,-174"/>
<text text-anchor="start" x="202" y="-162" font-family="Helvetica,sans-Serif" font-size="10.00">src.puissanceQuatre.gestion</text>
<text text-anchor="middle" x="271.5" y="-151" font-family="Helvetica,sans-Serif" font-size="10.00">Partie.gp_get_player_choice</text>
</a>
</g>
</g>
<!-- Node1&#45;&gt;Node2 -->
<g id="edge1_Node000001_Node000002" class="edge">
<title>Node1&#45;&gt;Node2</title>
<g id="a_edge1_Node000001_Node000002"><a xlink:title=" ">
<path fill="none" stroke="#63b8ff" d="M113.59,-102.13C136.12,-112.03 166.58,-124.95 194,-135 199.23,-136.92 204.69,-138.82 210.18,-140.67"/>
<polygon fill="#63b8ff" stroke="#63b8ff" points="209.48,-144.12 220.07,-143.92 211.67,-137.47 209.48,-144.12"/>
</a>
</g>
</g>
<!-- Node3 -->
<g id="Node000003" class="node">
<title>Node3</title>
<g id="a_Node000003"><a xlink:href="namespacesrc_1_1puissanceQuatre_1_1gestionPartie.html#ad9924d90e2191d3bd3af6b4c0c8b99be" target="_top" xlink:title="Méthode permettant au joueur d&#39;annuler ou de refaire son dernier coup.">
<polygon fill="white" stroke="#666666" points="349,-126 194,-126 194,-96 349,-96 349,-126"/>
<text text-anchor="start" x="202" y="-114" font-family="Helvetica,sans-Serif" font-size="10.00">src.puissanceQuatre.gestion</text>
<text text-anchor="middle" x="271.5" y="-103" font-family="Helvetica,sans-Serif" font-size="10.00">Partie.gp_handle_undo_redo</text>
</a>
</g>
</g>
<!-- Node1&#45;&gt;Node3 -->
<g id="edge2_Node000001_Node000003" class="edge">
<title>Node1&#45;&gt;Node3</title>
<g id="a_edge2_Node000001_Node000003"><a xlink:title=" ">
<path fill="none" stroke="#63b8ff" d="M158.03,-96.83C166.53,-97.9 175.21,-98.99 183.8,-100.08"/>
<polygon fill="#63b8ff" stroke="#63b8ff" points="183.46,-103.56 193.82,-101.34 184.34,-96.62 183.46,-103.56"/>
</a>
</g>
</g>
<!-- Node4 -->
<g id="Node000004" class="node">
<title>Node4</title>
<g id="a_Node000004"><a xlink:href="namespacesrc_1_1puissanceQuatre_1_1gestionPartie.html#ae5955463d297453ce99b6188e2962570" target="_top" xlink:title="Affiche les règles du jeu.">
<polygon fill="white" stroke="#666666" points="349,-78 194,-78 194,-48 349,-48 349,-78"/>
<text text-anchor="start" x="202" y="-66" font-family="Helvetica,sans-Serif" font-size="10.00">src.puissanceQuatre.gestion</text>
<text text-anchor="middle" x="271.5" y="-55" font-family="Helvetica,sans-Serif" font-size="10.00">Partie.gp_show_rules</text>
</a>
</g>
</g>
<!-- Node1&#45;&gt;Node4 -->
<g id="edge3_Node000001_Node000004" class="edge">
<title>Node1&#45;&gt;Node4</title>
<g id="a_edge3_Node000001_Node000004"><a xlink:title=" ">
<path fill="none" stroke="#63b8ff" d="M158.03,-77.17C166.53,-76.1 175.21,-75.01 183.8,-73.92"/>
<polygon fill="#63b8ff" stroke="#63b8ff" points="184.34,-77.38 193.82,-72.66 183.46,-70.44 184.34,-77.38"/>
</a>
</g>
</g>
<!-- Node5 -->
<g id="Node000005" class="node">
<title>Node5</title>
<g id="a_Node000005"><a xlink:href="namespacesrc_1_1puissanceQuatre_1_1gestionPartie.html#a6840a3ba32bb77e469f305f7c620f8e6" target="_top" xlink:title="Méthode permettant au joueur d&#39;utiliser son bonus.">
<polygon fill="white" stroke="#666666" points="349,-30 194,-30 194,0 349,0 349,-30"/>
<text text-anchor="start" x="202" y="-18" font-family="Helvetica,sans-Serif" font-size="10.00">src.puissanceQuatre.gestion</text>
<text text-anchor="middle" x="271.5" y="-7" font-family="Helvetica,sans-Serif" font-size="10.00">Partie.gp_use_bonus</text>
</a>
</g>
</g>
<!-- Node1&#45;&gt;Node5 -->
<g id="edge4_Node000001_Node000005" class="edge">
<title>Node1&#45;&gt;Node5</title>
<g id="a_edge4_Node000001_Node000005"><a xlink:title=" ">
<path fill="none" stroke="#63b8ff" d="M113.59,-71.87C136.12,-61.97 166.58,-49.05 194,-39 199.23,-37.08 204.69,-35.18 210.18,-33.33"/>
<polygon fill="#63b8ff" stroke="#63b8ff" points="211.67,-36.53 220.07,-30.08 209.48,-29.88 211.67,-36.53"/>
</a>
</g>
</g>
</g>
</svg>
