<?xml version="1.0" encoding="UTF-8" standalone="no"?>
<!DOCTYPE svg PUBLIC "-//W3C//DTD SVG 1.1//EN"
 "http://www.w3.org/Graphics/SVG/1.1/DTD/svg11.dtd">
<!-- Generated by graphviz version 2.43.0 (0)
 -->
<!-- Title: src.puissanceQuatre.puissanceQuatre.pq_minmax Pages: 1 -->
<!--zoomable 230 -->

<svg id="main" version="1.1" xmlns="http://www.w3.org/2000/svg" xmlns:xlink="http://www.w3.org/1999/xlink" xml:space="preserve" onload="init(evt)">
<style type="text/css"><![CDATA[
.node, .edge {opacity: 0.7;}
.node.selected, .edge.selected {opacity: 1;}
.edge:hover path { stroke: red; }
.edge:hover polygon { stroke: red; fill: red; }
]]></style>

<defs>
  <circle id="rim" cx="0" cy="0" r="7"/>
  <circle id="rim2" cx="0" cy="0" r="3.5"/>
  <g id="zoomPlus">
    <use xlink:href="#rim" fill="#404040"><set attributeName="fill" to="#808080" begin="zoomplus.mouseover" end="zoomplus.mouseout"/></use>
    <path d="M-4,0h8M0,-4v8" fill="none" stroke="white" stroke-width="1.5" pointer-events="none"/>
  </g>
  <g id="zoomMin">
    <use xlink:href="#rim" fill="#404040"><set attributeName="fill" to="#808080" begin="zoomminus.mouseover" end="zoomminus.mouseout"/></use>
    <path d="M-4,0h8" fill="none" stroke="white" stroke-width="1.5" pointer-events="none"/>
  </g>
  <g id="arrowUp" transform="translate(30 24)">
    <use xlink:href="#rim"/>
    <path pointer-events="none" fill="none" stroke="white" stroke-width="1.5" d="M0,-3.0v7 M-2.5,-0.5L0,-3.0L2.5,-0.5"/>
  </g>
  <g id="arrowRight" transform="rotate(90) translate(36 -43)">
    <use xlink:href="#rim"/>
    <path pointer-events="none" fill="none" stroke="white" stroke-width="1.5" d="M0,-3.0v7 M-2.5,-0.5L0,-3.0L2.5,-0.5"/>
  </g>
  <g id="arrowDown" transform="rotate(180) translate(-30 -48)">
    <use xlink:href="#rim"/>
    <path pointer-events="none" fill="none" stroke="white" stroke-width="1.5" d="M0,-3.0v7 M-2.5,-0.5L0,-3.0L2.5,-0.5"/>
  </g>
  <g id="arrowLeft" transform="rotate(270) translate(-36 17)">
    <use xlink:href="#rim"/>
    <path pointer-events="none" fill="none" stroke="white" stroke-width="1.5" d="M0,-3.0v7 M-2.5,-0.5L0,-3.0L2.5,-0.5"/>
  </g>
  <g id="resetDef">
    <use xlink:href="#rim2" fill="#404040"><set attributeName="fill" to="#808080" begin="reset.mouseover" end="reset.mouseout"/></use>
  </g>
</defs>
<script type="application/ecmascript">
var viewWidth = 581;
var viewHeight = 230;
var sectionId = 'dynsection-3';
</script>
<script type="application/ecmascript" xlink:href="svg.min.js"/>
<svg id="graph" class="graph">
<g id="viewport">
<title>src.puissanceQuatre.puissanceQuatre.pq_minmax</title>
<!-- Node1 -->
<g id="Node000001" class="node">
<title>Node1</title>
<g id="a_Node000001"><a xlink:title="Méthode implémentant l&#39;algorithme minmax.">
<polygon fill="#999999" stroke="#666666" points="167,-150 0,-150 0,-120 167,-120 167,-150"/>
<text text-anchor="start" x="8" y="-138" font-family="Helvetica,sans-Serif" font-size="10.00">src.puissanceQuatre.puissance</text>
<text text-anchor="middle" x="83.5" y="-127" font-family="Helvetica,sans-Serif" font-size="10.00">Quatre.pq_minmax</text>
</a>
</g>
</g>
<!-- Node1&#45;&gt;Node1 -->
<g id="edge4_Node000001_Node000001" class="edge">
<title>Node1&#45;&gt;Node1</title>
<g id="a_edge4_Node000001_Node000001"><a xlink:title=" ">
<path fill="none" stroke="#63b8ff" d="M47.99,-150.28C40.1,-159.41 51.94,-168 83.5,-168 102.24,-168 114.03,-164.97 118.86,-160.6"/>
<polygon fill="#63b8ff" stroke="#63b8ff" points="122.36,-160.33 119.01,-150.28 115.36,-160.22 122.36,-160.33"/>
</a>
</g>
</g>
<!-- Node2 -->
<g id="Node000002" class="node">
<title>Node2</title>
<g id="a_Node000002"><a xlink:href="namespacesrc_1_1puissanceQuatre_1_1puissanceQuatre.html#a0d16eac42f24323fdda7fbff6a0cbcf2" target="_top" xlink:title="La méthode qui gère le placement de jetons.">
<polygon fill="white" stroke="#666666" points="370,-215 203,-215 203,-185 370,-185 370,-215"/>
<text text-anchor="start" x="211" y="-203" font-family="Helvetica,sans-Serif" font-size="10.00">src.puissanceQuatre.puissance</text>
<text text-anchor="middle" x="286.5" y="-192" font-family="Helvetica,sans-Serif" font-size="10.00">Quatre.pq_ajout_piece</text>
</a>
</g>
</g>
<!-- Node1&#45;&gt;Node2 -->
<g id="edge1_Node000001_Node000002" class="edge">
<title>Node1&#45;&gt;Node2</title>
<g id="a_edge1_Node000001_Node000002"><a xlink:title=" ">
<path fill="none" stroke="#63b8ff" d="M131.12,-150.08C160.31,-159.52 198.12,-171.74 229.02,-181.73"/>
<polygon fill="#63b8ff" stroke="#63b8ff" points="228.19,-185.15 238.79,-184.89 230.35,-178.49 228.19,-185.15"/>
</a>
</g>
</g>
<!-- Node4 -->
<g id="Node000004" class="node">
<title>Node4</title>
<g id="a_Node000004"><a xlink:href="namespacesrc_1_1puissanceQuatre_1_1puissanceQuatre.html#af19be5e310e9f1158c585b014264aa08" target="_top" xlink:title="Vérifie si on peut poser un jeton dans cette colonne.">
<polygon fill="white" stroke="#666666" points="573,-174 406,-174 406,-144 573,-144 573,-174"/>
<text text-anchor="start" x="414" y="-162" font-family="Helvetica,sans-Serif" font-size="10.00">src.puissanceQuatre.puissance</text>
<text text-anchor="middle" x="489.5" y="-151" font-family="Helvetica,sans-Serif" font-size="10.00">Quatre.pq_verif_colonne</text>
</a>
</g>
</g>
<!-- Node1&#45;&gt;Node4 -->
<g id="edge6_Node000001_Node000004" class="edge">
<title>Node1&#45;&gt;Node4</title>
<g id="a_edge6_Node000001_Node000004"><a xlink:title=" ">
<path fill="none" stroke="#63b8ff" d="M167.23,-139.91C233.68,-143.86 326.96,-149.4 395.89,-153.5"/>
<polygon fill="#63b8ff" stroke="#63b8ff" points="395.69,-156.99 405.88,-154.09 396.11,-150 395.69,-156.99"/>
</a>
</g>
</g>
<!-- Node5 -->
<g id="Node000005" class="node">
<title>Node5</title>
<g id="a_Node000005"><a xlink:href="namespacesrc_1_1puissanceQuatre_1_1puissanceQuatre.html#a43c21a259daf90f3409ef02cf8a7ddd2" target="_top" xlink:title="Vérification de si la partie est finie ou non.">
<polygon fill="white" stroke="#666666" points="370,-129 203,-129 203,-99 370,-99 370,-129"/>
<text text-anchor="start" x="211" y="-117" font-family="Helvetica,sans-Serif" font-size="10.00">src.puissanceQuatre.puissance</text>
<text text-anchor="middle" x="286.5" y="-106" font-family="Helvetica,sans-Serif" font-size="10.00">Quatre.pq_partie_finie</text>
</a>
</g>
</g>
<!-- Node1&#45;&gt;Node5 -->
<g id="edge5_Node000001_Node000005" class="edge">
<title>Node1&#45;&gt;Node5</title>
<g id="a_edge5_Node000001_Node000005"><a xlink:title=" ">
<path fill="none" stroke="#63b8ff" d="M167.12,-126.37C175.61,-125.48 184.27,-124.58 192.85,-123.68"/>
<polygon fill="#63b8ff" stroke="#63b8ff" points="193.29,-127.15 202.87,-122.63 192.56,-120.19 193.29,-127.15"/>
</a>
</g>
</g>
<!-- Node6 -->
<g id="Node000006" class="node">
<title>Node6</title>
<g id="a_Node000006"><a xlink:href="namespacesrc_1_1puissanceQuatre_1_1puissanceQuatre.html#ac684727bae3bfbadc62404364e4511b8" target="_top" xlink:title=" ">
<polygon fill="white" stroke="#666666" points="370,-80 203,-80 203,-50 370,-50 370,-80"/>
<text text-anchor="start" x="211" y="-68" font-family="Helvetica,sans-Serif" font-size="10.00">src.puissanceQuatre.puissance</text>
<text text-anchor="middle" x="286.5" y="-57" font-family="Helvetica,sans-Serif" font-size="10.00">Quatre.pq_victoire</text>
</a>
</g>
</g>
<!-- Node1&#45;&gt;Node6 -->
<g id="edge7_Node000001_Node000006" class="edge">
<title>Node1&#45;&gt;Node6</title>
<g id="a_edge7_Node000001_Node000006"><a xlink:title=" ">
<path fill="none" stroke="#63b8ff" d="M122.15,-119.94C145.32,-110.87 175.71,-99.3 203,-90 209.82,-87.68 216.99,-85.34 224.14,-83.08"/>
<polygon fill="#63b8ff" stroke="#63b8ff" points="225.33,-86.38 233.84,-80.06 223.25,-79.7 225.33,-86.38"/>
</a>
</g>
</g>
<!-- Node3 -->
<g id="Node000003" class="node">
<title>Node3</title>
<g id="a_Node000003"><a xlink:href="namespacesrc_1_1puissanceQuatre_1_1puissanceQuatre.html#a950aa9633e9676b64e28a4f98bb7cc3a" target="_top" xlink:title="Trouve la première case vide dans une colonne.">
<polygon fill="white" stroke="#666666" points="573,-222 406,-222 406,-192 573,-192 573,-222"/>
<text text-anchor="start" x="414" y="-210" font-family="Helvetica,sans-Serif" font-size="10.00">src.puissanceQuatre.puissance</text>
<text text-anchor="middle" x="489.5" y="-199" font-family="Helvetica,sans-Serif" font-size="10.00">Quatre.pq_find_hole</text>
</a>
</g>
</g>
<!-- Node2&#45;&gt;Node3 -->
<g id="edge2_Node000002_Node000003" class="edge">
<title>Node2&#45;&gt;Node3</title>
<g id="a_edge2_Node000002_Node000003"><a xlink:title=" ">
<path fill="none" stroke="#63b8ff" d="M370.12,-202.88C378.61,-203.17 387.27,-203.47 395.85,-203.77"/>
<polygon fill="#63b8ff" stroke="#63b8ff" points="395.76,-207.27 405.87,-204.12 396,-200.28 395.76,-207.27"/>
</a>
</g>
</g>
<!-- Node2&#45;&gt;Node4 -->
<g id="edge3_Node000002_Node000004" class="edge">
<title>Node2&#45;&gt;Node4</title>
<g id="a_edge3_Node000002_Node000004"><a xlink:title=" ">
<path fill="none" stroke="#63b8ff" d="M361.2,-184.97C375.4,-182.07 390.38,-179.02 404.87,-176.06"/>
<polygon fill="#63b8ff" stroke="#63b8ff" points="405.71,-179.46 414.81,-174.03 404.31,-172.6 405.71,-179.46"/>
</a>
</g>
</g>
<!-- Node7 -->
<g id="Node000007" class="node">
<title>Node7</title>
<g id="a_Node000007"><a xlink:href="namespacesrc_1_1puissanceQuatre_1_1puissanceQuatre.html#a662f22c97ca3b952383ae42f8bca4cad" target="_top" xlink:title="Verification de la victoire sur une colonne.">
<polygon fill="white" stroke="#666666" points="573,-126 406,-126 406,-96 573,-96 573,-126"/>
<text text-anchor="start" x="414" y="-114" font-family="Helvetica,sans-Serif" font-size="10.00">src.puissanceQuatre.puissance</text>
<text text-anchor="middle" x="489.5" y="-103" font-family="Helvetica,sans-Serif" font-size="10.00">Quatre.pq_victoire_colonne</text>
</a>
</g>
</g>
<!-- Node6&#45;&gt;Node7 -->
<g id="edge8_Node000006_Node000007" class="edge">
<title>Node6&#45;&gt;Node7</title>
<g id="a_edge8_Node000006_Node000007"><a xlink:title=" ">
<path fill="none" stroke="#63b8ff" d="M353.31,-80.06C372.41,-84.43 393.42,-89.24 413.06,-93.73"/>
<polygon fill="#63b8ff" stroke="#63b8ff" points="412.35,-97.16 422.88,-95.98 413.91,-90.34 412.35,-97.16"/>
</a>
</g>
</g>
<!-- Node8 -->
<g id="Node000008" class="node">
<title>Node8</title>
<g id="a_Node000008"><a xlink:href="namespacesrc_1_1puissanceQuatre_1_1puissanceQuatre.html#a2f76c9e9fd0ced658f382d854abdefea" target="_top" xlink:title="Verification de la victoire sur les diagonales.">
<polygon fill="white" stroke="#666666" points="573,-78 406,-78 406,-48 573,-48 573,-78"/>
<text text-anchor="start" x="414" y="-66" font-family="Helvetica,sans-Serif" font-size="10.00">src.puissanceQuatre.puissance</text>
<text text-anchor="middle" x="489.5" y="-55" font-family="Helvetica,sans-Serif" font-size="10.00">Quatre.pq_victoire_diago</text>
</a>
</g>
</g>
<!-- Node6&#45;&gt;Node8 -->
<g id="edge9_Node000006_Node000008" class="edge">
<title>Node6&#45;&gt;Node8</title>
<g id="a_edge9_Node000006_Node000008"><a xlink:title=" ">
<path fill="none" stroke="#63b8ff" d="M370.12,-64.18C378.61,-64.09 387.27,-64.01 395.85,-63.92"/>
<polygon fill="#63b8ff" stroke="#63b8ff" points="395.91,-67.42 405.87,-63.82 395.84,-60.42 395.91,-67.42"/>
</a>
</g>
</g>
<!-- Node9 -->
<g id="Node000009" class="node">
<title>Node9</title>
<g id="a_Node000009"><a xlink:href="namespacesrc_1_1puissanceQuatre_1_1puissanceQuatre.html#aa13c5a20d8aa478adda10bc609f1fc1b" target="_top" xlink:title="Verification de la victoire sur la ligne.">
<polygon fill="white" stroke="#666666" points="573,-30 406,-30 406,0 573,0 573,-30"/>
<text text-anchor="start" x="414" y="-18" font-family="Helvetica,sans-Serif" font-size="10.00">src.puissanceQuatre.puissance</text>
<text text-anchor="middle" x="489.5" y="-7" font-family="Helvetica,sans-Serif" font-size="10.00">Quatre.pq_victoire_ligne</text>
</a>
</g>
</g>
<!-- Node6&#45;&gt;Node9 -->
<g id="edge10_Node000006_Node000009" class="edge">
<title>Node6&#45;&gt;Node9</title>
<g id="a_edge10_Node000006_Node000009"><a xlink:title=" ">
<path fill="none" stroke="#63b8ff" d="M347.81,-50C369.87,-44.51 395.02,-38.25 417.9,-32.56"/>
<polygon fill="#63b8ff" stroke="#63b8ff" points="419.03,-35.89 427.89,-30.08 417.34,-29.09 419.03,-35.89"/>
</a>
</g>
</g>
</g>
</svg>

<g id="navigator" transform="translate(0 0)" fill="#404254">
  <rect fill="#f2f5e9" fill-opacity="0.5" stroke="#606060" stroke-width=".5" x="0" y="0" width="60" height="60"/>
  <use id="zoomplus" xlink:href="#zoomPlus" x="17" y="9" onmousedown="handleZoom(evt,'in')"/>
  <use id="zoomminus" xlink:href="#zoomMin" x="42" y="9" onmousedown="handleZoom(evt,'out')"/>
  <use id="reset" xlink:href="#resetDef" x="30" y="36" onmousedown="handleReset()"/>
   <use id="arrowup" xlink:href="#arrowUp" x="0" y="0" onmousedown="handlePan(0,-1)"/>
  <use id="arrowright" xlink:href="#arrowRight" x="0" y="0" onmousedown="handlePan(1,0)"/>
  <use id="arrowdown" xlink:href="#arrowDown" x="0" y="0" onmousedown="handlePan(0,1)"/>
  <use id="arrowleft" xlink:href="#arrowLeft" x="0" y="0" onmousedown="handlePan(-1,0)"/>
</g>
<svg viewBox="0 0 15 15" width="100%" height="30px" preserveAspectRatio="xMaxYMin meet">
 <g id="arrow_out" transform="scale(0.3 0.3)">
  <a xlink:href="namespacesrc_1_1puissanceQuatre_1_1puissanceQuatre_a8e0776ccc28cc6ea375e5231a9b9387a_cgraph_org.svg" target="_base">
   <rect id="button" ry="5" rx="5" y="6" x="6" height="38" width="38"
        fill="#f2f5e9" fill-opacity="0.5" stroke="#606060" stroke-width="1.0"/>
   <path id="arrow"
     d="M 11.500037,31.436501 C 11.940474,20.09759 22.043105,11.32322 32.158766,21.979434 L 37.068811,17.246167 C 37.068811,17.246167 37.088388,32 37.088388,32 L 22.160133,31.978069 C 22.160133,31.978069 26.997745,27.140456 26.997745,27.140456 C 18.528582,18.264221 13.291696,25.230495 11.500037,31.436501 z"
     style="fill:#404040;"/>
  </a>
 </g>
</svg>

<style type='text/css'>
<![CDATA[
[data-mouse-over-selected='false'] { opacity: 0.7; }
[data-mouse-over-selected='true']  { opacity: 1.0; }
]]>
</style>
<script type="application/ecmascript"><![CDATA[
document.addEventListener('DOMContentLoaded', (event) => {
  highlightEdges();
  highlightAdjacentNodes();
});
]]></script>
</svg>
