<?xml version="1.0" encoding="UTF-8" standalone="no"?>
<!DOCTYPE svg PUBLIC "-//W3C//DTD SVG 1.1//EN"
 "http://www.w3.org/Graphics/SVG/1.1/DTD/svg11.dtd">
<!-- Generated by graphviz version 2.43.0 (0)
 -->
<!-- Title: src.controller.ctrl_pageJeu.cpj_redo Pages: 1 -->
<svg width="457pt" height="86pt"
 viewBox="0.00 0.00 457.00 86.00" xmlns="http://www.w3.org/2000/svg" xmlns:xlink="http://www.w3.org/1999/xlink">
<g id="graph0" class="graph" transform="scale(1 1) rotate(0) translate(4 82)">
<title>src.controller.ctrl_pageJeu.cpj_redo</title>
<!-- Node1 -->
<g id="Node000001" class="node">
<title>Node1</title>
<g id="a_Node000001"><a xlink:title="Refait le dernier coup.">
<polygon fill="#999999" stroke="#666666" points="105,-54 0,-54 0,-24 105,-24 105,-54"/>
<text text-anchor="start" x="8" y="-42" font-family="Helvetica,sans-Serif" font-size="10.00">src.controller.ctrl</text>
<text text-anchor="middle" x="52.5" y="-31" font-family="Helvetica,sans-Serif" font-size="10.00">_pageJeu.cpj_redo</text>
</a>
</g>
</g>
<!-- Node2 -->
<g id="Node000002" class="node">
<title>Node2</title>
<g id="a_Node000002"><a xlink:href="namespacesrc_1_1controller_1_1ctrl__pageJeu.html#a3b1f3eaf369683943243d07811fe578f" target="_top" xlink:title="Réinitialise la grille de jeu.">
<polygon fill="white" stroke="#666666" points="282,-54 141,-54 141,-24 282,-24 282,-54"/>
<text text-anchor="start" x="149" y="-42" font-family="Helvetica,sans-Serif" font-size="10.00">src.controller.ctrl</text>
<text text-anchor="middle" x="211.5" y="-31" font-family="Helvetica,sans-Serif" font-size="10.00">_pageJeu.cpj_update_grid</text>
</a>
</g>
</g>
<!-- Node1&#45;&gt;Node2 -->
<g id="edge1_Node000001_Node000002" class="edge">
<title>Node1&#45;&gt;Node2</title>
<g id="a_edge1_Node000001_Node000002"><a xlink:title=" ">
<path fill="none" stroke="#63b8ff" d="M105.34,-39C113.5,-39 122.08,-39 130.69,-39"/>
<polygon fill="#63b8ff" stroke="#63b8ff" points="130.78,-42.5 140.78,-39 130.78,-35.5 130.78,-42.5"/>
</a>
</g>
</g>
<!-- Node3 -->
<g id="Node000003" class="node">
<title>Node3</title>
<g id="a_Node000003"><a xlink:href="namespacesrc_1_1controller_1_1ctrl__pageJeu.html#a78551bcfdafd534d8aa90cea38b57585" target="_top" xlink:title="Dessine la grille de jeu.">
<polygon fill="white" stroke="#666666" points="449,-78 318,-78 318,-48 449,-48 449,-78"/>
<text text-anchor="start" x="326" y="-66" font-family="Helvetica,sans-Serif" font-size="10.00">src.controller.ctrl</text>
<text text-anchor="middle" x="383.5" y="-55" font-family="Helvetica,sans-Serif" font-size="10.00">_pageJeu.cpj_draw_grid</text>
</a>
</g>
</g>
<!-- Node2&#45;&gt;Node3 -->
<g id="edge2_Node000002_Node000003" class="edge">
<title>Node2&#45;&gt;Node3</title>
<g id="a_edge2_Node000002_Node000003"><a xlink:title=" ">
<path fill="none" stroke="#63b8ff" d="M282.14,-48.83C290.64,-50.03 299.35,-51.26 307.92,-52.47"/>
<polygon fill="#63b8ff" stroke="#63b8ff" points="307.5,-55.95 317.9,-53.88 308.48,-49.02 307.5,-55.95"/>
</a>
</g>
</g>
<!-- Node4 -->
<g id="Node000004" class="node">
<title>Node4</title>
<g id="a_Node000004"><a xlink:href="namespacesrc_1_1controller_1_1ctrl__pageJeu.html#a672fc84221142d0c882ef87bb7ff5764" target="_top" xlink:title="Place un jeton dans la grille de jeu.">
<polygon fill="white" stroke="#666666" points="446,-30 321,-30 321,0 446,0 446,-30"/>
<text text-anchor="start" x="329" y="-18" font-family="Helvetica,sans-Serif" font-size="10.00">src.controller.ctrl</text>
<text text-anchor="middle" x="383.5" y="-7" font-family="Helvetica,sans-Serif" font-size="10.00">_pageJeu.cpj_put_coin</text>
</a>
</g>
</g>
<!-- Node2&#45;&gt;Node4 -->
<g id="edge3_Node000002_Node000004" class="edge">
<title>Node2&#45;&gt;Node4</title>
<g id="a_edge3_Node000002_Node000004"><a xlink:title=" ">
<path fill="none" stroke="#63b8ff" d="M282.14,-29.17C291.56,-27.84 301.25,-26.47 310.72,-25.13"/>
<polygon fill="#63b8ff" stroke="#63b8ff" points="311.46,-28.56 320.87,-23.7 310.48,-21.63 311.46,-28.56"/>
</a>
</g>
</g>
</g>
</svg>
