<?xml version="1.0" encoding="UTF-8" standalone="no"?>
<!DOCTYPE svg PUBLIC "-//W3C//DTD SVG 1.1//EN"
 "http://www.w3.org/Graphics/SVG/1.1/DTD/svg11.dtd">
<!-- Generated by graphviz version 2.43.0 (0)
 -->
<!-- Title: src.view.view_pageParametres.vpp_reset_settings Pages: 1 -->
<svg width="420pt" height="182pt"
 viewBox="0.00 0.00 420.00 182.00" xmlns="http://www.w3.org/2000/svg" xmlns:xlink="http://www.w3.org/1999/xlink">

<svg id="main" version="1.1" xmlns="http://www.w3.org/2000/svg" xmlns:xlink="http://www.w3.org/1999/xlink" xml:space="preserve" onload="init(evt)">
<style type="text/css"><![CDATA[
.node, .edge {opacity: 0.7;}
.node.selected, .edge.selected {opacity: 1;}
.edge:hover path { stroke: red; }
.edge:hover polygon { stroke: red; fill: red; }
]]></style>
<script type="application/ecmascript" xlink:href="svg.min.js"/>
<svg id="graph" class="graph">
<g id="graph0" class="graph" transform="scale(1 1) rotate(0) translate(4 178)">
<title>src.view.view_pageParametres.vpp_reset_settings</title>
<!-- Node1 -->
<g id="Node000001" class="node">
<title>Node1</title>
<g id="a_Node000001"><a xlink:title="Réinitialise les paramètres du jeu.">
<polygon fill="#999999" stroke="#666666" points="188,-102 0,-102 0,-72 188,-72 188,-102"/>
<text text-anchor="start" x="8" y="-90" font-family="Helvetica,sans-Serif" font-size="10.00">src.view.view_pageParametres.vpp</text>
<text text-anchor="middle" x="94" y="-79" font-family="Helvetica,sans-Serif" font-size="10.00">_reset_settings</text>
</a>
</g>
</g>
<!-- Node2 -->
<g id="Node000002" class="node">
<title>Node2</title>
<g id="a_Node000002"><a xlink:href="namespacesrc_1_1view_1_1view__pageParametres.html#a6e0f5a65f9cbea40bd0ac046150fbedb" target="_top" xlink:title="Mutateur pour la difficulté">
<polygon fill="white" stroke="#666666" points="412,-174 224,-174 224,-144 412,-144 412,-174"/>
<text text-anchor="start" x="232" y="-162" font-family="Helvetica,sans-Serif" font-size="10.00">src.view.view_pageParametres.vpp</text>
<text text-anchor="middle" x="318" y="-151" font-family="Helvetica,sans-Serif" font-size="10.00">_set_difficulty</text>
</a>
</g>
</g>
<!-- Node1&#45;&gt;Node2 -->
<g id="edge1_Node000001_Node000002" class="edge">
<title>Node1&#45;&gt;Node2</title>
<g id="a_edge1_Node000001_Node000002"><a xlink:title=" ">
<path fill="none" stroke="#63b8ff" d="M132.18,-102C157.77,-112.04 192.65,-125.15 224,-135 230.78,-137.13 237.88,-139.22 245.01,-141.21"/>
<polygon fill="#63b8ff" stroke="#63b8ff" points="244.15,-144.61 254.72,-143.88 246,-137.86 244.15,-144.61"/>
</a>
</g>
</g>
<!-- Node3 -->
<g id="Node000003" class="node">
<title>Node3</title>
<g id="a_Node000003"><a xlink:href="namespacesrc_1_1view_1_1view__pageParametres.html#a143176e6416225112080e5ba2fb83989" target="_top" xlink:title="Mutateur pour le nombre de colonnes.">
<polygon fill="white" stroke="#666666" points="412,-126 224,-126 224,-96 412,-96 412,-126"/>
<text text-anchor="start" x="232" y="-114" font-family="Helvetica,sans-Serif" font-size="10.00">src.view.view_pageParametres.vpp</text>
<text text-anchor="middle" x="318" y="-103" font-family="Helvetica,sans-Serif" font-size="10.00">_set_nb_columns</text>
</a>
</g>
</g>
<!-- Node1&#45;&gt;Node3 -->
<g id="edge2_Node000001_Node000003" class="edge">
<title>Node1&#45;&gt;Node3</title>
<g id="a_edge2_Node000001_Node000003"><a xlink:title=" ">
<path fill="none" stroke="#63b8ff" d="M188.18,-97.07C196.63,-97.99 205.21,-98.91 213.73,-99.84"/>
<polygon fill="#63b8ff" stroke="#63b8ff" points="213.38,-103.32 223.7,-100.91 214.13,-96.36 213.38,-103.32"/>
</a>
</g>
</g>
<!-- Node4 -->
<g id="Node000004" class="node">
<title>Node4</title>
<g id="a_Node000004"><a xlink:href="namespacesrc_1_1view_1_1view__pageParametres.html#a367073fe74c5742d9d7d55c5aa62fea1" target="_top" xlink:title="Mutateur pour le nombre de jetons requis.">
<polygon fill="white" stroke="#666666" points="412,-78 224,-78 224,-48 412,-48 412,-78"/>
<text text-anchor="start" x="232" y="-66" font-family="Helvetica,sans-Serif" font-size="10.00">src.view.view_pageParametres.vpp</text>
<text text-anchor="middle" x="318" y="-55" font-family="Helvetica,sans-Serif" font-size="10.00">_set_nb_jetons</text>
</a>
</g>
</g>
<!-- Node1&#45;&gt;Node4 -->
<g id="edge3_Node000001_Node000004" class="edge">
<title>Node1&#45;&gt;Node4</title>
<g id="a_edge3_Node000001_Node000004"><a xlink:title=" ">
<path fill="none" stroke="#63b8ff" d="M188.18,-76.93C196.63,-76.01 205.21,-75.09 213.73,-74.16"/>
<polygon fill="#63b8ff" stroke="#63b8ff" points="214.13,-77.64 223.7,-73.09 213.38,-70.68 214.13,-77.64"/>
</a>
</g>
</g>
<!-- Node5 -->
<g id="Node000005" class="node">
<title>Node5</title>
<g id="a_Node000005"><a xlink:href="namespacesrc_1_1view_1_1view__pageParametres.html#ad1196ff4826cf21e6d173c1cbd54474f" target="_top" xlink:title="Mutateur pour le nombre de lignes.">
<polygon fill="white" stroke="#666666" points="412,-30 224,-30 224,0 412,0 412,-30"/>
<text text-anchor="start" x="232" y="-18" font-family="Helvetica,sans-Serif" font-size="10.00">src.view.view_pageParametres.vpp</text>
<text text-anchor="middle" x="318" y="-7" font-family="Helvetica,sans-Serif" font-size="10.00">_set_nb_rows</text>
</a>
</g>
</g>
<!-- Node1&#45;&gt;Node5 -->
<g id="edge4_Node000001_Node000005" class="edge">
<title>Node1&#45;&gt;Node5</title>
<g id="a_edge4_Node000001_Node000005"><a xlink:title=" ">
<path fill="none" stroke="#63b8ff" d="M132.18,-72C157.77,-61.96 192.65,-48.85 224,-39 230.78,-36.87 237.88,-34.78 245.01,-32.79"/>
<polygon fill="#63b8ff" stroke="#63b8ff" points="246,-36.14 254.72,-30.12 244.15,-29.39 246,-36.14"/>
</a>
</g>
</g>
</g>
</svg>
</svg>

<style type='text/css'>
<![CDATA[
[data-mouse-over-selected='false'] { opacity: 0.7; }
[data-mouse-over-selected='true']  { opacity: 1.0; }
]]>
</style>
<script type="application/ecmascript"><![CDATA[
document.addEventListener('DOMContentLoaded', (event) => {
  highlightEdges();
  highlightAdjacentNodes();
});
]]></script>
</svg>
