<?xml version="1.0" encoding="UTF-8" standalone="no"?>
<!DOCTYPE svg PUBLIC "-//W3C//DTD SVG 1.1//EN"
 "http://www.w3.org/Graphics/SVG/1.1/DTD/svg11.dtd">
<!-- Generated by graphviz version 2.43.0 (0)
 -->
<!-- Title: src.controller.ctrl_pageJeu.cpj_info_turn Pages: 1 -->
<svg width="467pt" height="157pt"
 viewBox="0.00 0.00 467.00 157.00" xmlns="http://www.w3.org/2000/svg" xmlns:xlink="http://www.w3.org/1999/xlink">

<svg id="main" version="1.1" xmlns="http://www.w3.org/2000/svg" xmlns:xlink="http://www.w3.org/1999/xlink" xml:space="preserve" onload="init(evt)">
<style type="text/css"><![CDATA[
.node, .edge {opacity: 0.7;}
.node.selected, .edge.selected {opacity: 1;}
.edge:hover path { stroke: red; }
.edge:hover polygon { stroke: red; fill: red; }
]]></style>
<script type="application/ecmascript" xlink:href="svg.min.js"/>
<svg id="graph" class="graph">
<g id="graph0" class="graph" transform="scale(1 1) rotate(0) translate(4 153)">
<title>src.controller.ctrl_pageJeu.cpj_info_turn</title>
<!-- Node1 -->
<g id="Node000001" class="node">
<title>Node1</title>
<g id="a_Node000001"><a xlink:title="Affiche le joueur qui doit jouer.">
<polygon fill="#999999" stroke="#666666" points="459,-94 332,-94 332,-64 459,-64 459,-94"/>
<text text-anchor="start" x="340" y="-82" font-family="Helvetica,sans-Serif" font-size="10.00">src.controller.ctrl</text>
<text text-anchor="middle" x="395.5" y="-71" font-family="Helvetica,sans-Serif" font-size="10.00">_pageJeu.cpj_info_turn</text>
</a>
</g>
</g>
<!-- Node2 -->
<g id="Node000002" class="node">
<title>Node2</title>
<g id="a_Node000002"><a xlink:href="namespacesrc_1_1controller_1_1ctrl__pageJeu.html#adfe22b506775bc4282ffe2dd1768427c" target="_top" xlink:title="Fait jouer le bot.">
<polygon fill="white" stroke="#666666" points="296,-116 171,-116 171,-86 296,-86 296,-116"/>
<text text-anchor="start" x="179" y="-104" font-family="Helvetica,sans-Serif" font-size="10.00">src.controller.ctrl</text>
<text text-anchor="middle" x="233.5" y="-93" font-family="Helvetica,sans-Serif" font-size="10.00">_pageJeu.cpj_bot_play</text>
</a>
</g>
</g>
<!-- Node1&#45;&gt;Node2 -->
<g id="edge1_Node000001_Node000002" class="edge">
<title>Node1&#45;&gt;Node2</title>
<g id="a_edge1_Node000001_Node000002"><a xlink:title=" ">
<path fill="none" stroke="#63b8ff" d="M321.73,-89.01C313.14,-90.19 304.45,-91.38 296.05,-92.54"/>
<polygon fill="#63b8ff" stroke="#63b8ff" points="322.29,-92.46 331.72,-87.63 321.34,-85.53 322.29,-92.46"/>
</a>
</g>
</g>
<!-- Node3 -->
<g id="Node000003" class="node">
<title>Node3</title>
<g id="a_Node000003"><a xlink:href="namespacesrc_1_1controller_1_1ctrl__pageJeu.html#ab02263adc48ce5d29f5428c28ff81f42" target="_top" xlink:title="Joue un coup dans la grille de jeu.">
<polygon fill="white" stroke="#666666" points="119.5,-149 15.5,-149 15.5,-119 119.5,-119 119.5,-149"/>
<text text-anchor="start" x="23.5" y="-137" font-family="Helvetica,sans-Serif" font-size="10.00">src.controller.ctrl</text>
<text text-anchor="middle" x="67.5" y="-126" font-family="Helvetica,sans-Serif" font-size="10.00">_pageJeu.cpj_play</text>
</a>
</g>
</g>
<!-- Node1&#45;&gt;Node3 -->
<g id="edge5_Node000001_Node000003" class="edge">
<title>Node1&#45;&gt;Node3</title>
<g id="a_edge5_Node000001_Node000003"><a xlink:title=" ">
<path fill="none" stroke="#63b8ff" d="M360.72,-98.87C342.25,-108.66 318.59,-119.51 296,-125 236.85,-139.36 166.54,-139.7 119.9,-137.69"/>
<polygon fill="#63b8ff" stroke="#63b8ff" points="362.49,-101.88 369.6,-94.03 359.15,-95.74 362.49,-101.88"/>
</a>
</g>
</g>
<!-- Node4 -->
<g id="Node000004" class="node">
<title>Node4</title>
<g id="a_Node000004"><a xlink:href="namespacesrc_1_1controller_1_1ctrl__pageJeu.html#a6522f20b78261f4f0a9a60b7d9598e7b" target="_top" xlink:title="Utilise un bonus puis met à jour la grille de jeu.">
<polygon fill="white" stroke="#666666" points="135,-92 0,-92 0,-62 135,-62 135,-92"/>
<text text-anchor="start" x="8" y="-80" font-family="Helvetica,sans-Serif" font-size="10.00">src.controller.ctrl</text>
<text text-anchor="middle" x="67.5" y="-69" font-family="Helvetica,sans-Serif" font-size="10.00">_pageJeu.cpj_use_bonus</text>
</a>
</g>
</g>
<!-- Node1&#45;&gt;Node4 -->
<g id="edge6_Node000001_Node000004" class="edge">
<title>Node1&#45;&gt;Node4</title>
<g id="a_edge6_Node000001_Node000004"><a xlink:title=" ">
<path fill="none" stroke="#63b8ff" d="M321.82,-77.36C313.12,-77.21 304.36,-77.08 296,-77 241.89,-76.45 180.54,-76.49 135.2,-76.64"/>
<polygon fill="#63b8ff" stroke="#63b8ff" points="321.91,-80.86 331.97,-77.54 322.04,-73.86 321.91,-80.86"/>
</a>
</g>
</g>
<!-- Node5 -->
<g id="Node000005" class="node">
<title>Node5</title>
<g id="a_Node000005"><a xlink:href="namespacesrc_1_1controller_1_1ctrl__pageJeu.html#a540ec039fb625bf8f192a8b731e2c39f" target="_top" xlink:title="Affiche la page de jeu.">
<polygon fill="white" stroke="#666666" points="283,-30 184,-30 184,0 283,0 283,-30"/>
<text text-anchor="start" x="192" y="-18" font-family="Helvetica,sans-Serif" font-size="10.00">src.controller.ctrl</text>
<text text-anchor="middle" x="233.5" y="-7" font-family="Helvetica,sans-Serif" font-size="10.00">_pageJeu.cpj_init</text>
</a>
</g>
</g>
<!-- Node1&#45;&gt;Node5 -->
<g id="edge4_Node000001_Node000005" class="edge">
<title>Node1&#45;&gt;Node5</title>
<g id="a_edge4_Node000001_Node000005"><a xlink:title=" ">
<path fill="none" stroke="#63b8ff" d="M347.68,-60.27C323.6,-50.64 294.65,-39.06 272.05,-30.02"/>
<polygon fill="#63b8ff" stroke="#63b8ff" points="346.4,-63.53 356.99,-63.99 349,-57.03 346.4,-63.53"/>
</a>
</g>
</g>
<!-- Node2&#45;&gt;Node3 -->
<g id="edge2_Node000002_Node000003" class="edge">
<title>Node2&#45;&gt;Node3</title>
<g id="a_edge2_Node000002_Node000003"><a xlink:title=" ">
<path fill="none" stroke="#63b8ff" d="M160.94,-115.4C147.04,-118.2 132.74,-121.07 119.66,-123.71"/>
<polygon fill="#63b8ff" stroke="#63b8ff" points="161.85,-118.79 170.97,-113.38 160.47,-111.92 161.85,-118.79"/>
</a>
</g>
</g>
<!-- Node2&#45;&gt;Node4 -->
<g id="edge3_Node000002_Node000004" class="edge">
<title>Node2&#45;&gt;Node4</title>
<g id="a_edge3_Node000002_Node000004"><a xlink:title=" ">
<path fill="none" stroke="#63b8ff" d="M160.95,-90.53C152.35,-89.27 143.58,-87.99 135.05,-86.74"/>
<polygon fill="#63b8ff" stroke="#63b8ff" points="160.56,-94.01 170.97,-92 161.58,-87.08 160.56,-94.01"/>
</a>
</g>
</g>
</g>
</svg>
</svg>

<style type='text/css'>
<![CDATA[
[data-mouse-over-selected='false'] { opacity: 0.7; }
[data-mouse-over-selected='true']  { opacity: 1.0; }
]]>
</style>
<script type="application/ecmascript"><![CDATA[
document.addEventListener('DOMContentLoaded', (event) => {
  highlightEdges();
  highlightAdjacentNodes();
});
]]></script>
</svg>
