<?xml version="1.0" encoding="UTF-8" standalone="no"?>
<!DOCTYPE svg PUBLIC "-//W3C//DTD SVG 1.1//EN"
 "http://www.w3.org/Graphics/SVG/1.1/DTD/svg11.dtd">
<!-- Generated by graphviz version 2.43.0 (0)
 -->
<!-- Title: src.controller.ctrl_pageParametres.cpp_init Pages: 1 -->
<svg width="309pt" height="108pt"
 viewBox="0.00 0.00 309.00 108.00" xmlns="http://www.w3.org/2000/svg" xmlns:xlink="http://www.w3.org/1999/xlink">
<g id="graph0" class="graph" transform="scale(1 1) rotate(0) translate(4 104)">
<title>src.controller.ctrl_pageParametres.cpp_init</title>
<!-- Node1 -->
<g id="Node000001" class="node">
<title>Node1</title>
<g id="a_Node000001"><a xlink:title="Initialise la page des paramètres.">
<polygon fill="#999999" stroke="#666666" points="143,-64.5 0,-64.5 0,-34.5 143,-34.5 143,-64.5"/>
<text text-anchor="start" x="8" y="-52.5" font-family="Helvetica,sans-Serif" font-size="10.00">src.controller.ctrl</text>
<text text-anchor="middle" x="71.5" y="-41.5" font-family="Helvetica,sans-Serif" font-size="10.00">_pageParametres.cpp_init</text>
</a>
</g>
</g>
<!-- Node2 -->
<g id="Node000002" class="node">
<title>Node2</title>
<g id="a_Node000002"><a xlink:href="namespacesrc_1_1controller_1_1ctrl__pageParametres.html#af15eef5d46c59b6bc40d88b82c22d0ed" target="_top" xlink:title="Charge les paramètres de personnalisation.">
<polygon fill="white" stroke="#666666" points="301,-100 179,-100 179,-59 301,-59 301,-100"/>
<text text-anchor="start" x="187" y="-88" font-family="Helvetica,sans-Serif" font-size="10.00">src.controller.ctrl</text>
<text text-anchor="start" x="187" y="-77" font-family="Helvetica,sans-Serif" font-size="10.00">_pageParametres.cpp</text>
<text text-anchor="middle" x="240" y="-66" font-family="Helvetica,sans-Serif" font-size="10.00">_custom_load</text>
</a>
</g>
</g>
<!-- Node1&#45;&gt;Node2 -->
<g id="edge1_Node000001_Node000002" class="edge">
<title>Node1&#45;&gt;Node2</title>
<g id="a_edge1_Node000001_Node000002"><a xlink:title=" ">
<path fill="none" stroke="#63b8ff" d="M143.11,-62.22C151.65,-63.76 160.37,-65.33 168.89,-66.87"/>
<polygon fill="#63b8ff" stroke="#63b8ff" points="168.34,-70.32 178.8,-68.65 169.58,-63.43 168.34,-70.32"/>
</a>
</g>
</g>
<!-- Node3 -->
<g id="Node000003" class="node">
<title>Node3</title>
<g id="a_Node000003"><a xlink:href="namespacesrc_1_1controller_1_1ctrl__pageParametres.html#aa5c7d95bcb32b47ba9083b62edf66204" target="_top" xlink:title="Charge les paramètres.">
<polygon fill="white" stroke="#666666" points="301,-41 179,-41 179,0 301,0 301,-41"/>
<text text-anchor="start" x="187" y="-29" font-family="Helvetica,sans-Serif" font-size="10.00">src.controller.ctrl</text>
<text text-anchor="start" x="187" y="-18" font-family="Helvetica,sans-Serif" font-size="10.00">_pageParametres.cpp</text>
<text text-anchor="middle" x="240" y="-7" font-family="Helvetica,sans-Serif" font-size="10.00">_settings_load</text>
</a>
</g>
</g>
<!-- Node1&#45;&gt;Node3 -->
<g id="edge2_Node000001_Node000003" class="edge">
<title>Node1&#45;&gt;Node3</title>
<g id="a_edge2_Node000001_Node000003"><a xlink:title=" ">
<path fill="none" stroke="#63b8ff" d="M143.11,-37.2C151.65,-35.71 160.37,-34.2 168.89,-32.71"/>
<polygon fill="#63b8ff" stroke="#63b8ff" points="169.55,-36.15 178.8,-30.99 168.35,-29.25 169.55,-36.15"/>
</a>
</g>
</g>
</g>
</svg>
