<?xml version="1.0" encoding="UTF-8" standalone="no"?>
<!DOCTYPE svg PUBLIC "-//W3C//DTD SVG 1.1//EN"
 "http://www.w3.org/Graphics/SVG/1.1/DTD/svg11.dtd">
<!-- Generated by graphviz version 2.43.0 (0)
 -->
<!-- Title: src.view.view_pageParametres.vpp_init Pages: 1 -->
<svg width="441pt" height="86pt"
 viewBox="0.00 0.00 441.00 86.00" xmlns="http://www.w3.org/2000/svg" xmlns:xlink="http://www.w3.org/1999/xlink">
<g id="graph0" class="graph" transform="scale(1 1) rotate(0) translate(4 82)">
<title>src.view.view_pageParametres.vpp_init</title>
<!-- Node1 -->
<g id="Node000001" class="node">
<title>Node1</title>
<g id="a_Node000001"><a xlink:title="Fonction initialisant la page des paramètres.">
<polygon fill="#999999" stroke="#666666" points="209,-48.5 0,-48.5 0,-29.5 209,-29.5 209,-48.5"/>
<text text-anchor="middle" x="104.5" y="-36.5" font-family="Helvetica,sans-Serif" font-size="10.00">src.view.view_pageParametres.vpp_init</text>
</a>
</g>
</g>
<!-- Node2 -->
<g id="Node000002" class="node">
<title>Node2</title>
<g id="a_Node000002"><a xlink:href="namespacesrc_1_1view_1_1view__pageParametres.html#aa9282516e7758e88ec4b459c9a587d0c" target="_top" xlink:title="Fonction initialisant la partie personnalisation des paramètres.">
<polygon fill="white" stroke="#666666" points="433,-78 245,-78 245,-48 433,-48 433,-78"/>
<text text-anchor="start" x="253" y="-66" font-family="Helvetica,sans-Serif" font-size="10.00">src.view.view_pageParametres.vpp</text>
<text text-anchor="middle" x="339" y="-55" font-family="Helvetica,sans-Serif" font-size="10.00">_init_custom</text>
</a>
</g>
</g>
<!-- Node1&#45;&gt;Node2 -->
<g id="edge1_Node000001_Node000002" class="edge">
<title>Node1&#45;&gt;Node2</title>
<g id="a_edge1_Node000001_Node000002"><a xlink:title=" ">
<path fill="none" stroke="#63b8ff" d="M197.72,-48.52C209.81,-49.77 222.25,-51.05 234.51,-52.32"/>
<polygon fill="#63b8ff" stroke="#63b8ff" points="234.44,-55.83 244.75,-53.37 235.16,-48.87 234.44,-55.83"/>
</a>
</g>
</g>
<!-- Node3 -->
<g id="Node000003" class="node">
<title>Node3</title>
<g id="a_Node000003"><a xlink:href="namespacesrc_1_1view_1_1view__pageParametres.html#ac640b38e84d99cdeca4eaea904bdbb92" target="_top" xlink:title="Fonction initialisant la partie paramètres du jeu.">
<polygon fill="white" stroke="#666666" points="433,-30 245,-30 245,0 433,0 433,-30"/>
<text text-anchor="start" x="253" y="-18" font-family="Helvetica,sans-Serif" font-size="10.00">src.view.view_pageParametres.vpp</text>
<text text-anchor="middle" x="339" y="-7" font-family="Helvetica,sans-Serif" font-size="10.00">_init_settings</text>
</a>
</g>
</g>
<!-- Node1&#45;&gt;Node3 -->
<g id="edge2_Node000001_Node000003" class="edge">
<title>Node1&#45;&gt;Node3</title>
<g id="a_edge2_Node000001_Node000003"><a xlink:title=" ">
<path fill="none" stroke="#63b8ff" d="M197.72,-29.48C209.81,-28.23 222.25,-26.95 234.51,-25.68"/>
<polygon fill="#63b8ff" stroke="#63b8ff" points="235.16,-29.13 244.75,-24.63 234.44,-22.17 235.16,-29.13"/>
</a>
</g>
</g>
</g>
</svg>
